<svg width="244" height="28" viewBox="0 0 244 28" fill="none" xmlns="http://www.w3.org/2000/svg">
<g clip-path="url(#clip0_41_42)">
<path d="M0.173218 0.569641H10.1077C12.7764 0.569641 14.9525 1.26163 16.6344 2.64407C18.3195 4.02804 19.1635 6.0021 19.1635 8.56928C19.1635 10.5494 18.6521 12.2071 17.6323 13.5455C16.6109 14.8838 15.2255 15.8252 13.4777 16.3682L23.0357 27.5008H14.9902L6.50542 16.8609V27.5008H0.173218V0.569641ZM6.50542 12.5174H7.24595C7.82646 12.5174 8.32067 12.5083 8.72702 12.487C9.13181 12.4626 9.59307 12.3866 10.1077 12.2558C10.6223 12.1265 11.0365 11.9425 11.3503 11.7022C11.6672 11.4634 11.9371 11.1152 12.1598 10.6559C12.3858 10.1981 12.4987 9.643 12.4987 8.98904C12.4987 8.33659 12.3858 7.78301 12.1598 7.32827C11.9371 6.8705 11.6672 6.52223 11.3503 6.28193C11.0365 6.04316 10.6223 5.85914 10.1077 5.72835C9.59307 5.59907 9.13181 5.52455 8.72702 5.50326C8.32067 5.47893 7.82646 5.46676 7.24595 5.46676H6.50542V12.5174Z" fill="#6D7364"/>
<path d="M24.2313 25.5115C22.3109 23.8568 21.3507 21.7367 21.3507 19.1483C21.3507 16.5568 22.3501 14.4306 24.3505 12.7668C26.3493 11.1 28.8204 10.2665 31.7622 10.2665C34.6568 10.2665 37.0981 11.1045 39.0859 12.779C41.0722 14.4549 42.0669 16.575 42.0669 19.1422C42.0669 21.7094 41.0942 23.8264 39.1487 25.4932C37.2063 27.157 34.7447 27.9874 31.7622 27.9874C28.662 27.9874 26.1517 27.1631 24.2313 25.5115ZM28.8439 16.3073C28.0689 17.0465 27.6829 17.9924 27.6829 19.1483C27.6829 20.3011 28.0532 21.241 28.7937 21.971C29.5343 22.6979 30.5102 23.0599 31.7245 23.0599C32.8918 23.0599 33.852 22.6918 34.6051 21.9527C35.3581 21.2105 35.7347 20.2737 35.7347 19.1422C35.7347 17.9909 35.3456 17.0465 34.5674 16.3073C33.7924 15.5652 32.8447 15.1941 31.7245 15.1941C30.5776 15.1941 29.6174 15.5652 28.8439 16.3073Z" fill="#6D7364"/>
<path d="M43.174 27.5008V10.7532H49.1359V12.5174H49.1986C50.7503 11.0178 52.4008 10.2665 54.1502 10.2665C55.4085 10.2665 56.5883 10.519 57.6897 11.0209C58.7895 11.5197 59.6195 12.2908 60.1812 13.3326C61.9289 11.2885 63.8368 10.2665 65.9046 10.2665C67.745 10.2665 69.3264 10.7684 70.6491 11.7691C71.9748 12.7668 72.6385 14.3333 72.6385 16.4655V27.5008H66.6765V18.035C66.6765 17.1438 66.4224 16.3986 65.9172 15.8024C65.4151 15.2032 64.6573 14.9021 63.6453 14.9021C62.7699 14.9021 62.1031 15.1576 61.6434 15.6686C61.1821 16.1796 60.9295 16.794 60.884 17.5118V27.5008H54.9284V18.035C54.9284 17.1438 54.6742 16.3986 54.169 15.8024C53.6622 15.2032 52.9045 14.9021 51.8972 14.9021C50.9762 14.9021 50.2859 15.1804 49.8262 15.7355C49.3649 16.2876 49.1359 16.9446 49.1359 17.7065V27.5008H43.174Z" fill="#6D7364"/>
<path d="M75.832 25.4263C74.216 23.7199 73.4096 21.6272 73.4096 19.1483C73.4096 16.6663 74.216 14.566 75.832 12.8459C77.4512 11.1273 79.5065 10.2665 82.0011 10.2665C84.2886 10.2665 86.1744 10.9631 87.6555 12.3531V10.7532H93.6174V27.5008H87.7245V25.6088H87.6555C86.1744 27.1951 84.2886 27.9874 82.0011 27.9874C79.5065 27.9874 77.4512 27.1342 75.832 25.4263ZM80.9028 16.3073C80.1278 17.0465 79.7418 17.9924 79.7418 19.1483C79.7418 20.3011 80.1121 21.241 80.8526 21.971C81.5931 22.6979 82.569 23.0599 83.7834 23.0599C84.9507 23.0599 85.9108 22.6918 86.6639 21.9527C87.417 21.2105 87.7936 20.2737 87.7936 19.1422C87.7936 17.9909 87.4045 17.0465 86.6263 16.3073C85.8512 15.5652 84.9036 15.1941 83.7834 15.1941C82.6365 15.1941 81.6763 15.5652 80.9028 16.3073Z" fill="#6D7364"/>
<path d="M113.718 0.0829773C115.225 0.0829773 116.695 0.295896 118.13 0.721732C119.569 1.14453 120.636 1.56124 121.331 1.97491L122.341 2.62583L119.781 7.52295C119.58 7.39368 119.299 7.22486 118.94 7.01803C118.579 6.81119 117.906 6.5344 116.919 6.18461C115.931 5.83633 115.011 5.66144 114.158 5.66144C113.103 5.66144 112.289 5.88044 111.716 6.31844C111.142 6.7534 110.857 7.33893 110.857 8.07654C110.857 8.4461 110.99 8.78829 111.258 9.10463C111.53 9.42096 111.989 9.76011 112.639 10.1206C113.292 10.478 113.864 10.7654 114.359 10.9844C114.851 11.2004 115.615 11.5258 116.649 11.9638C118.444 12.7029 119.975 13.7082 121.243 14.9812C122.514 16.2556 123.151 17.6974 123.151 19.3065C123.151 20.8516 122.864 22.2021 122.291 23.358C121.717 24.5108 120.931 25.4126 119.931 26.0651C118.93 26.7191 117.824 27.2012 116.612 27.5129C115.402 27.8293 114.09 27.9874 112.677 27.9874C111.462 27.9874 110.273 27.8673 109.106 27.6285C107.939 27.3897 106.961 27.0917 106.175 26.7343C105.387 26.3738 104.681 26.021 104.054 25.6758C103.426 25.3275 102.965 25.034 102.673 24.7937L102.234 24.4347L105.403 19.276C105.67 19.492 106.04 19.7688 106.514 20.1095C106.986 20.4471 107.822 20.8988 109.024 21.4661C110.224 22.0303 111.285 22.3116 112.206 22.3116C114.875 22.3116 116.21 21.4296 116.21 19.6654C116.21 19.2973 116.113 18.9536 115.921 18.6373C115.733 18.3209 115.396 18.0077 114.911 17.6944C114.429 17.378 114.002 17.1271 113.631 16.94C113.262 16.7545 112.658 16.4716 111.817 16.0944C110.976 15.7142 110.352 15.4237 109.947 15.2245C108.265 14.4215 106.963 13.4162 106.043 12.2072C105.122 10.9996 104.663 9.69928 104.663 8.30771C104.663 5.89108 105.582 3.91551 107.424 2.38249C109.264 0.849483 111.362 0.0829773 113.718 0.0829773Z" fill="#6D7364"/>
<path d="M141.905 19.9269H129.379C129.379 21.1041 129.77 21.9755 130.553 22.5428C131.339 23.107 132.192 23.3884 133.113 23.3884C134.08 23.3884 134.842 23.2637 135.404 23.0112C135.964 22.7603 136.604 22.266 137.324 21.5269L141.636 23.6135C139.841 26.5305 136.855 27.9874 132.68 27.9874C130.073 27.9874 127.837 27.1236 125.971 25.3959C124.109 23.6652 123.179 21.5801 123.179 19.1422C123.179 16.7058 124.109 14.6162 125.971 12.8763C127.837 11.1365 130.073 10.2665 132.68 10.2665C135.416 10.2665 137.641 11.033 139.357 12.5661C141.077 14.0991 141.937 16.2921 141.937 19.1422C141.937 19.5361 141.926 19.7977 141.905 19.9269ZM129.549 16.7271H136.113C135.978 15.8602 135.625 15.1926 135.052 14.7257C134.478 14.2557 133.742 14.02 132.843 14.02C131.855 14.02 131.069 14.2724 130.484 14.7743C129.902 15.2732 129.589 15.9241 129.549 16.7271Z" fill="#6D7364"/>
<path d="M143.049 27.5008V10.7532H149.011V13.1683H149.074C149.119 13.0831 149.193 12.9767 149.293 12.8459C149.394 12.7121 149.61 12.4839 149.946 12.1585C150.285 11.83 150.644 11.5364 151.025 11.2764C151.41 11.0178 151.905 10.7836 152.513 10.5768C153.118 10.37 153.736 10.2665 154.364 10.2665C155.017 10.2665 155.657 10.3547 156.284 10.5281C156.912 10.703 157.372 10.8779 157.665 11.0513L158.136 11.3068L155.644 16.2039C154.904 15.5956 153.87 15.2914 152.544 15.2914C151.824 15.2914 151.207 15.4435 150.693 15.7477C150.178 16.0518 149.814 16.4229 149.601 16.8609C149.387 17.2959 149.234 17.6639 149.143 17.9681C149.055 18.2723 149.011 18.5126 149.011 18.6859V27.5008H143.049Z" fill="#6D7364"/>
<path d="M162.515 10.7532L166.72 19.8601L170.931 10.7532H178.003L168.74 27.5008H164.699L155.442 10.7532H162.515Z" fill="#6D7364"/>
<path d="M178.236 1.42132C178.934 0.744544 179.764 0.405396 180.728 0.405396C181.694 0.405396 182.524 0.744544 183.219 1.42132C183.917 2.09505 184.267 2.89958 184.267 3.83642C184.267 4.77022 183.917 5.57475 183.219 6.25152C182.524 6.92526 181.694 7.26136 180.728 7.26136C179.764 7.26136 178.934 6.92526 178.236 6.25152C177.541 5.57475 177.194 4.77022 177.194 3.83642C177.194 2.89958 177.541 2.09505 178.236 1.42132ZM177.665 10.7532V27.5008H183.627V10.7532H177.665Z" fill="#6D7364"/>
<path d="M195.345 14.9994C194.223 14.9994 193.256 15.404 192.445 16.21C191.637 17.013 191.234 17.9803 191.234 19.1118C191.234 20.2646 191.637 21.244 192.445 22.05C193.256 22.8531 194.223 23.2546 195.345 23.2546C195.884 23.2546 196.394 23.1907 196.876 23.0599C197.356 22.9306 197.711 22.8013 197.936 22.6705L198.238 22.4759L200.258 26.4909C200.103 26.5974 199.885 26.7327 199.606 26.8985C199.325 27.0612 198.685 27.2817 197.685 27.5616C196.684 27.8445 195.611 27.9874 194.466 27.9874C191.931 27.9874 189.703 27.1236 187.782 25.3959C185.862 23.6652 184.902 21.5923 184.902 19.1787C184.902 16.7423 185.862 14.6466 187.782 12.8946C189.703 11.1425 191.931 10.2665 194.466 10.2665C195.611 10.2665 196.669 10.3989 197.635 10.662C198.602 10.922 199.286 11.1821 199.687 11.4406L200.258 11.83L198.238 15.7842C197.497 15.261 196.532 14.9994 195.345 14.9994Z" fill="#6D7364"/>
<path d="M201.572 1.42132C202.27 0.744544 203.1 0.405396 204.063 0.405396C205.03 0.405396 205.86 0.744544 206.555 1.42132C207.253 2.09505 207.603 2.89958 207.603 3.83642C207.603 4.77022 207.253 5.57475 206.555 6.25152C205.86 6.92526 205.03 7.26136 204.063 7.26136C203.1 7.26136 202.27 6.92526 201.572 6.25152C200.877 5.57475 200.53 4.77022 200.53 3.83642C200.53 2.89958 200.877 2.09505 201.572 1.42132ZM201.001 10.7532V27.5008H206.962V10.7532H201.001Z" fill="#6D7364"/>
<path d="M211.118 25.5115C209.198 23.8568 208.237 21.7367 208.237 19.1483C208.237 16.5568 209.237 14.4306 211.237 12.7668C213.236 11.1 215.707 10.2665 218.649 10.2665C221.543 10.2665 223.985 11.1045 225.973 12.779C227.959 14.4549 228.953 16.575 228.953 19.1422C228.953 21.7094 227.981 23.8264 226.035 25.4932C224.093 27.157 221.631 27.9874 218.649 27.9874C215.549 27.9874 213.038 27.1631 211.118 25.5115ZM215.731 16.3073C214.955 17.0465 214.57 17.9924 214.57 19.1483C214.57 20.3011 214.94 21.241 215.68 21.971C216.421 22.6979 217.397 23.0599 218.611 23.0599C219.778 23.0599 220.739 22.6918 221.492 21.9527C222.245 21.2105 222.621 20.2737 222.621 19.1422C222.621 17.9909 222.232 17.0465 221.454 16.3073C220.679 15.5652 219.731 15.1941 218.611 15.1941C217.464 15.1941 216.504 15.5652 215.731 16.3073Z" fill="#6D7364"/>
<path d="M237.573 10.2665C238.559 10.2665 239.534 10.376 240.497 10.595C241.464 10.811 242.182 11.027 242.656 11.246L243.365 11.5684L241.407 15.3583C240.059 14.6618 238.781 14.312 237.573 14.312C236.898 14.312 236.419 14.3835 236.136 14.5249C235.855 14.6679 235.715 14.9325 235.715 15.3218C235.715 15.4116 235.724 15.5013 235.746 15.5895C235.772 15.6747 235.817 15.7568 235.884 15.8328C235.95 15.9058 236.012 15.9712 236.066 16.0275C236.125 16.0807 236.22 16.14 236.355 16.2039C236.493 16.2693 236.6 16.3195 236.675 16.356C236.754 16.3895 236.884 16.4381 237.064 16.502C237.243 16.5674 237.378 16.6161 237.466 16.648C237.557 16.6815 237.711 16.7301 237.924 16.794C238.137 16.8594 238.301 16.902 238.414 16.9218C239.107 17.121 239.713 17.34 240.227 17.5788C240.745 17.8191 241.291 18.1445 241.865 18.5582C242.438 18.9719 242.882 19.495 243.196 20.1277C243.509 20.7573 243.666 21.4721 243.666 22.2751C243.666 26.0833 240.938 27.9874 235.483 27.9874C234.248 27.9874 233.075 27.8019 231.962 27.4338C230.853 27.0658 230.05 26.6962 229.552 26.3267L228.812 25.7366L231.24 21.7885C231.419 21.9436 231.655 22.123 231.943 22.3299C232.235 22.5337 232.762 22.815 233.525 23.1755C234.29 23.5374 234.953 23.7169 235.514 23.7169C236.747 23.7169 237.366 23.3139 237.366 22.5063C237.366 22.1383 237.209 21.8493 236.895 21.6425C236.581 21.4356 236.048 21.2029 235.295 20.9429C234.545 20.6798 233.958 20.4379 233.531 20.2189C232.452 19.676 231.598 19.0616 230.971 18.3757C230.343 17.6913 230.029 16.7818 230.029 15.6503C230.029 13.9561 230.707 12.636 232.063 11.6901C233.421 10.741 235.258 10.2665 237.573 10.2665Z" fill="#6D7364"/>
</g>
<defs>
<clipPath id="clip0_41_42">
<rect width="244" height="28" fill="white"/>
</clipPath>
</defs>
</svg>
