<svg width="730" height="384" viewBox="0 0 730 384" fill="none" xmlns="http://www.w3.org/2000/svg">
<mask id="mask0_650_2272" style="mask-type:luminance" maskUnits="userSpaceOnUse" x="486" y="304" width="242" height="17">
<path d="M486.812 304.593H727.056V320.825H486.812V304.593Z" fill="white"/>
</mask>
<g mask="url(#mask0_650_2272)">
<path d="M685.242 304.593L666.037 320.698H678.09L697.295 304.593H685.242ZM665.283 304.593L646.091 320.698H658.144L677.348 304.593H665.283ZM645.443 304.593L626.238 320.698H638.303L657.496 304.593H645.443ZM625.496 304.593L606.292 320.698H618.345L637.549 304.593H625.496ZM605.656 304.593L586.451 320.698H598.504L617.708 304.593H605.656ZM585.709 304.593L566.505 320.698H578.557L597.762 304.593H585.709ZM565.751 304.593L546.558 320.698H558.611L577.815 304.593H565.751ZM545.91 304.593L526.706 320.698H538.77L557.963 304.593H545.91ZM525.963 304.593L506.759 320.698H518.812L538.016 304.593H525.963ZM506.017 304.593L486.812 320.698H498.865L518.069 304.593H506.017ZM705.188 304.593L685.984 320.698H698.037L717.241 304.593H705.188ZM725.029 304.593L705.825 320.698H717.877L737.082 304.593H725.029ZM744.976 304.593L725.771 320.698H737.836L757.028 304.593H744.976ZM764.922 304.593L745.73 320.698H757.783L776.987 304.593H764.922Z" fill="#FF892F"/>
</g>
<mask id="mask1_650_2272" style="mask-type:luminance" maskUnits="userSpaceOnUse" x="2" y="0" width="728" height="383">
<path d="M2 0H730V383H2V0Z" fill="white"/>
</mask>
<g mask="url(#mask1_650_2272)">
<path d="M2 0H730V383H2V0Z" fill="white"/>
<path d="M2 0H730V383H2V0Z" fill="#333333"/>
</g>
<mask id="mask2_650_2272" style="mask-type:luminance" maskUnits="userSpaceOnUse" x="83" y="169" width="57" height="58">
<path d="M83.5278 169.91H139.047V226.656H83.5278V169.91Z" fill="white"/>
</mask>
<g mask="url(#mask2_650_2272)">
<mask id="mask3_650_2272" style="mask-type:luminance" maskUnits="userSpaceOnUse" x="85" y="169" width="107" height="57">
<path d="M191.324 195.528L180.403 180.768C180.107 180.377 179.693 180.176 179.16 180.176H160.902L162.677 171.549C162.76 171.136 162.654 170.766 162.346 170.449C162.05 170.132 161.671 169.963 161.198 169.963H101.845C101.478 169.963 101.159 170.068 100.886 170.28C100.603 170.481 100.437 170.745 100.366 171.062L98.7566 178.907H88.6159C88.2017 178.907 87.8468 179.045 87.5628 179.299C87.267 179.563 87.125 179.88 87.125 180.25C87.125 180.62 87.267 180.927 87.5628 181.191C87.8468 181.456 88.2017 181.582 88.6159 181.582H106.318C106.732 181.582 107.087 181.456 107.383 181.191C107.667 180.927 107.82 180.62 107.82 180.25C107.82 179.88 107.667 179.563 107.383 179.299C107.087 179.045 106.732 178.907 106.318 178.907H101.798L103.087 172.638H159.411L150.478 216.093H127.368C127.226 214.761 126.729 213.534 125.901 212.424C125.073 211.314 124.008 210.436 122.694 209.802C120.399 208.724 118.032 208.565 115.583 209.326C113.11 210.088 111.276 211.504 110.057 213.577C109.584 214.37 109.252 215.205 109.063 216.093H94.1655L96.603 204.251H101.667C102.082 204.251 102.425 204.124 102.721 203.86C103.016 203.596 103.158 203.278 103.158 202.919C103.158 202.549 103.016 202.232 102.721 201.967C102.425 201.714 102.082 201.576 101.667 201.576H87.125C86.7108 201.576 86.3677 201.714 86.0718 201.967C85.776 202.232 85.634 202.549 85.634 202.919C85.634 203.278 85.776 203.596 86.0718 203.86C86.3677 204.124 86.7108 204.251 87.125 204.251H93.562L90.8996 217.193C90.8168 217.594 90.9233 217.964 91.2309 218.282C91.5268 218.609 91.9054 218.768 92.3787 218.768H108.945C109.087 220.1 109.572 221.316 110.4 222.426C111.228 223.547 112.305 224.414 113.619 225.059C114.908 225.672 116.281 225.979 117.748 225.968C119.547 225.958 121.203 225.524 122.73 224.678C124.268 223.843 125.44 222.712 126.268 221.284C126.741 220.491 127.072 219.646 127.262 218.768H158.015C158.157 220.1 158.654 221.316 159.482 222.426C160.311 223.547 161.376 224.414 162.689 225.059C163.979 225.672 165.363 225.979 166.819 225.968C168.617 225.958 170.274 225.524 171.812 224.678C173.339 223.843 174.51 222.712 175.338 221.284C175.812 220.491 176.143 219.646 176.344 218.768H184.189C184.958 218.768 185.444 218.43 185.633 217.753L191.526 196.586C191.632 196.205 191.561 195.856 191.324 195.528ZM123.629 220.016C123.274 220.724 122.789 221.337 122.15 221.866C121.523 222.384 120.789 222.775 119.973 223.029C119.156 223.283 118.316 223.378 117.464 223.325C116.6 223.262 115.784 223.05 115.027 222.691C114.258 222.321 113.607 221.845 113.074 221.232C112.53 220.629 112.151 219.952 111.938 219.212C111.713 218.461 111.666 217.711 111.796 216.949C111.926 216.178 112.222 215.469 112.684 214.824C113.536 213.376 114.826 212.382 116.553 211.843C117.204 211.642 117.867 211.547 118.553 211.547C119.523 211.547 120.434 211.747 121.286 212.149C122.032 212.54 122.659 213.027 123.168 213.64C123.688 214.243 124.055 214.919 124.268 215.649C124.493 216.389 124.54 217.14 124.434 217.89C124.315 218.652 124.055 219.36 123.629 220.016ZM172.7 220.016C172.345 220.724 171.86 221.337 171.221 221.866C170.593 222.384 169.86 222.775 169.043 223.029C168.227 223.283 167.387 223.378 166.535 223.325C165.671 223.262 164.855 223.05 164.097 222.691C163.328 222.321 162.677 221.845 162.145 221.232C161.612 220.629 161.222 219.952 161.009 219.212C160.784 218.461 160.737 217.711 160.867 216.949C160.997 216.178 161.305 215.469 161.766 214.824C162.606 213.376 163.896 212.382 165.624 211.853C166.274 211.652 166.949 211.557 167.635 211.557C168.605 211.547 169.517 211.758 170.369 212.16C171.102 212.54 171.729 213.037 172.238 213.651C172.759 214.253 173.126 214.919 173.339 215.66C173.563 216.4 173.611 217.14 173.504 217.89C173.386 218.652 173.126 219.36 172.7 220.016ZM183.018 216.082H176.451C176.297 214.75 175.8 213.534 174.972 212.424C174.143 211.314 173.078 210.436 171.753 209.802C169.469 208.724 167.103 208.554 164.653 209.326C162.18 210.088 160.334 211.504 159.116 213.577C158.654 214.37 158.311 215.205 158.122 216.093H153.519L160.382 182.851H178.356L188.461 196.512L183.018 216.082Z" fill="white"/>
</mask>
<g mask="url(#mask3_650_2272)">
<path d="M85.634 169.963V225.979H139.047V169.963H85.634Z" fill="#FF892F"/>
</g>
</g>
<mask id="mask4_650_2272" style="mask-type:luminance" maskUnits="userSpaceOnUse" x="71" y="186" width="43" height="7">
<path d="M71.0088 186.763H113.82V192.177H71.0088V186.763Z" fill="white"/>
</mask>
<g mask="url(#mask4_650_2272)">
<mask id="mask5_650_2272" style="mask-type:luminance" maskUnits="userSpaceOnUse" x="71" y="187" width="43" height="3">
<path d="M113.559 188.392C113.559 188.021 113.417 187.704 113.122 187.44C112.826 187.186 112.471 187.049 112.068 187.049H72.7008C72.2866 187.049 71.9316 187.186 71.6476 187.44C71.3518 187.704 71.198 188.021 71.198 188.392C71.198 188.762 71.3518 189.068 71.6476 189.333C71.9316 189.597 72.2866 189.724 72.7008 189.724H112.068C112.471 189.724 112.826 189.597 113.122 189.333C113.417 189.068 113.559 188.762 113.559 188.392Z" fill="white"/>
</mask>
<g mask="url(#mask5_650_2272)">
<path d="M71.198 187.049V189.724H113.559V187.049H71.198Z" fill="#FF892F"/>
</g>
</g>
<mask id="mask6_650_2272" style="mask-type:luminance" maskUnits="userSpaceOnUse" x="77" y="192" width="34" height="6">
<path d="M77.4695 192.177H110.791V197.59H77.4695V192.177Z" fill="white"/>
</mask>
<g mask="url(#mask6_650_2272)">
<mask id="mask7_650_2272" style="mask-type:luminance" maskUnits="userSpaceOnUse" x="77" y="194" width="32" height="4">
<path d="M108.483 195.983C108.483 195.613 108.329 195.296 108.033 195.031C107.75 194.778 107.395 194.64 106.98 194.64H79.2207C78.8065 194.64 78.4515 194.778 78.1675 195.031C77.8717 195.296 77.7297 195.613 77.7297 195.983C77.7297 196.353 77.8717 196.66 78.1675 196.924C78.4515 197.188 78.8065 197.315 79.2207 197.315H106.98C107.395 197.315 107.75 197.188 108.033 196.924C108.329 196.66 108.483 196.353 108.483 195.983Z" fill="white"/>
</mask>
<g mask="url(#mask7_650_2272)">
<path d="M77.7297 194.64V197.315H108.483V194.64H77.7297Z" fill="#FF892F"/>
</g>
</g>
<path d="M143.659 163.981H166.473C172.65 163.981 177.572 165.44 181.24 168.337C184.897 171.213 186.731 175.22 186.731 180.348C186.731 185.624 184.897 189.673 181.24 192.486C177.608 195.309 172.685 196.715 166.473 196.715H155.492V212.448H143.659V163.981ZM164.769 187.876C171.455 187.876 174.803 185.37 174.803 180.348C174.803 177.535 173.904 175.569 172.105 174.469C170.331 173.349 167.893 172.778 164.769 172.778H155.492V187.876H164.769Z" fill="#FF892F"/>
<path d="M192.166 163.981H203.998V203.651H228.8V212.448H192.166V163.981Z" fill="#FF892F"/>
<path d="M261.342 213.505C255.911 213.505 250.976 212.448 246.527 210.333C242.102 208.198 238.623 205.216 236.067 201.41C233.535 197.582 232.281 193.194 232.281 188.257C232.281 183.298 233.535 178.899 236.067 175.061C238.623 171.234 242.102 168.252 246.527 166.138C250.976 164.002 255.911 162.923 261.342 162.923C266.761 162.923 271.66 164.002 276.014 166.138C280.393 168.252 283.848 171.234 286.38 175.061C288.936 178.899 290.214 183.298 290.214 188.257C290.214 193.194 288.936 197.582 286.38 201.41C283.848 205.216 280.393 208.198 276.014 210.333C271.66 212.448 266.761 213.505 261.342 213.505ZM261.342 203.778C264.43 203.778 267.258 203.144 269.814 201.875C272.394 200.606 274.429 198.809 275.92 196.461C277.434 194.125 278.192 191.386 278.192 188.257C278.192 185.159 277.446 182.441 275.967 180.094C274.476 177.758 272.465 175.95 269.909 174.681C267.353 173.412 264.489 172.778 261.342 172.778C258.123 172.778 255.236 173.412 252.68 174.681C250.124 175.95 248.089 177.758 246.575 180.094C245.084 182.441 244.35 185.159 244.35 188.257C244.35 191.386 245.084 194.125 246.575 196.461C248.089 198.809 250.136 200.606 252.728 201.875C255.307 203.144 258.182 203.778 261.342 203.778Z" fill="#FF892F"/>
<path d="M296.707 163.981H319.52C325.697 163.981 330.619 165.44 334.287 168.337C337.944 171.213 339.778 175.22 339.778 180.348C339.778 185.624 337.944 189.673 334.287 192.486C330.655 195.309 325.732 196.715 319.52 196.715H308.539V212.448H296.707V163.981ZM317.816 187.876C324.502 187.876 327.85 185.37 327.85 180.348C327.85 177.535 326.951 175.569 325.153 174.469C323.378 173.349 320.94 172.778 317.816 172.778H308.539V187.876H317.816Z" fill="#FF892F"/>
<path d="M358.182 172.778H342.373V163.981H385.823V172.778H369.967V212.448H358.182V172.778Z" fill="#FF892F"/>
<path d="M391.003 163.981H428.679V172.778H402.836V184.027H421.815V192.486H402.836V203.651H428.679V212.448H391.003V163.981Z" fill="#FF892F"/>
<path d="M434.387 163.981H457.911C464.064 163.981 468.856 165.366 472.299 168.125C475.731 170.864 477.459 174.808 477.459 179.967C477.459 183.583 476.524 186.65 474.666 189.187C472.796 191.703 470.17 193.533 466.762 194.685L477.08 212.448H464.963L455.45 195.996H446.22V212.448H434.387V163.981ZM455.828 187.199C458.822 187.199 461.188 186.628 462.928 185.465C464.655 184.313 465.531 182.484 465.531 179.967C465.531 177.345 464.679 175.505 462.975 174.427C461.271 173.327 458.881 172.778 455.828 172.778H446.22V187.199H455.828Z" fill="#FF892F"/>
<path d="M486.945 212.448C485.714 212.448 484.649 212.088 483.774 211.348C482.922 210.619 482.496 209.688 482.496 208.557C482.496 207.457 482.933 206.516 483.821 205.723C484.697 204.941 485.738 204.539 486.945 204.539C488.175 204.539 489.228 204.941 490.116 205.723C490.992 206.516 491.441 207.457 491.441 208.557C491.441 209.688 490.992 210.619 490.116 211.348C489.228 212.088 488.175 212.448 486.945 212.448Z" fill="#FF892F"/>
<path d="M435.435 244.231V231.543H440.263C441.931 231.543 443.304 231.818 444.38 232.347C445.445 232.886 446.238 233.637 446.747 234.588C447.279 235.519 447.552 236.618 447.552 237.887C447.552 239.188 447.279 240.319 446.747 241.271C446.238 242.201 445.445 242.941 444.38 243.47C443.304 243.977 441.931 244.231 440.263 244.231H435.435ZM438.038 242.243H440.168C441.328 242.243 442.262 242.074 442.96 241.736C443.647 241.398 444.144 240.911 444.428 240.256C444.735 239.611 444.901 238.818 444.901 237.887C444.901 236.989 444.735 236.217 444.428 235.561C444.144 234.916 443.647 234.419 442.96 234.081C442.262 233.721 441.328 233.531 440.168 233.531H438.038V242.243Z" fill="#FF892F"/>
<path d="M453.872 244.231V231.543H456.475V244.231H453.872Z" fill="#FF892F"/>
<path d="M468.091 244.443C467.049 244.443 466.126 244.284 465.345 243.977C464.553 243.639 463.925 243.174 463.452 242.582C463.003 241.99 462.766 241.271 462.742 240.425H465.487C465.511 241.017 465.748 241.514 466.197 241.905C466.671 242.307 467.298 242.497 468.091 242.497C468.777 242.497 469.321 242.36 469.7 242.074C470.102 241.768 470.315 241.376 470.315 240.89C470.315 240.361 470.138 239.949 469.795 239.664C469.44 239.389 468.966 239.156 468.375 238.987C467.771 238.797 467.144 238.596 466.481 238.395C465.369 238.056 464.541 237.623 463.973 237.084C463.405 236.555 463.121 235.847 463.121 234.969C463.085 234.208 463.275 233.563 463.689 233.024C464.091 232.495 464.659 232.083 465.393 231.797C466.115 231.491 466.931 231.332 467.854 231.332C468.801 231.332 469.629 231.491 470.362 231.797C471.084 232.114 471.652 232.537 472.066 233.066C472.469 233.605 472.694 234.25 472.729 235.011H469.937C469.937 234.567 469.747 234.166 469.369 233.827C468.99 233.468 468.469 233.277 467.807 233.277C467.239 233.277 466.765 233.404 466.387 233.658C466.008 233.912 465.819 234.292 465.819 234.8C465.819 235.223 465.961 235.561 466.245 235.815C466.552 236.069 466.966 236.28 467.475 236.449C467.972 236.619 468.564 236.788 469.227 236.957C469.948 237.189 470.599 237.454 471.167 237.76C471.735 238.046 472.185 238.427 472.54 238.902C472.918 239.357 473.108 239.96 473.108 240.721C473.108 241.398 472.918 242.021 472.54 242.582C472.161 243.153 471.593 243.597 470.836 243.935C470.102 244.273 469.191 244.443 468.091 244.443Z" fill="#FF892F"/>
<path d="M479.393 244.231V231.543H488.669V233.404H481.996V236.915H488.054V238.691H481.996V242.37H488.669V244.231H479.393Z" fill="#FF892F"/>
<path d="M495.138 244.231V231.543H497.741L504.415 240.467V231.543H506.971V244.231H504.415L497.741 235.307V244.231H495.138ZM502.333 230.613C501.954 230.613 501.623 230.55 501.339 230.402C501.078 230.264 500.83 230.127 500.581 229.979C500.356 229.841 500.12 229.767 499.871 229.767C499.362 229.767 499.067 230.053 498.972 230.613H497.599C497.718 229.831 497.99 229.26 498.404 228.921C498.806 228.562 499.327 228.372 499.966 228.372C500.345 228.372 500.652 228.446 500.913 228.583C501.197 228.699 501.445 228.826 501.67 228.964C501.918 229.112 502.191 229.175 502.475 229.175C502.687 229.175 502.877 229.122 503.042 229.006C503.196 228.868 503.291 228.657 503.326 228.372H504.699C504.569 229.133 504.285 229.704 503.847 230.063C503.433 230.433 502.924 230.613 502.333 230.613Z" fill="#FF892F"/>
<path d="M520.404 244.443C519.008 244.443 517.777 244.178 516.713 243.639C515.636 243.079 514.796 242.307 514.204 241.313C513.601 240.33 513.305 239.188 513.305 237.887C513.305 236.597 513.601 235.466 514.204 234.504C514.796 233.521 515.636 232.749 516.713 232.178C517.777 231.617 519.008 231.332 520.404 231.332C521.824 231.332 523.067 231.617 524.144 232.178C525.208 232.749 526.037 233.521 526.605 234.504C527.196 235.466 527.504 236.597 527.504 237.887C527.504 239.188 527.196 240.33 526.605 241.313C526.037 242.307 525.208 243.079 524.144 243.639C523.067 244.178 521.824 244.443 520.404 244.443ZM520.404 242.37C521.753 242.37 522.83 241.979 523.623 241.186C524.439 240.372 524.853 239.272 524.853 237.887C524.853 236.513 524.439 235.424 523.623 234.631C522.83 233.817 521.753 233.404 520.404 233.404C519.079 233.404 518.002 233.817 517.186 234.631C516.358 235.424 515.955 236.513 515.955 237.887C515.955 239.272 516.358 240.372 517.186 241.186C518.002 241.979 519.079 242.37 520.404 242.37Z" fill="#FF892F"/>
<path d="M546.391 244.231V239.706L541.61 231.543H544.545L547.669 237.422L550.793 231.543H553.727L548.947 239.706V244.231H546.391Z" fill="#FF892F"/>
<path d="M574.697 244.443C573.242 244.443 571.999 244.178 570.958 243.639C569.94 243.079 569.159 242.307 568.591 241.313C568.047 240.33 567.787 239.198 567.787 237.93C567.787 236.64 568.047 235.498 568.591 234.504C569.159 233.521 569.94 232.749 570.958 232.178C571.999 231.617 573.242 231.332 574.697 231.332C576.401 231.332 577.785 231.713 578.862 232.474C579.963 233.235 580.637 234.292 580.897 235.646H578.057C577.868 234.969 577.49 234.44 576.922 234.039C576.354 233.647 575.596 233.447 574.65 233.447C573.324 233.447 572.283 233.848 571.526 234.631C570.792 235.424 570.437 236.523 570.437 237.93C570.437 239.315 570.792 240.404 571.526 241.186C572.283 241.979 573.324 242.37 574.65 242.37C575.596 242.37 576.354 242.191 576.922 241.82C577.49 241.461 577.868 240.953 578.057 240.298H580.897C580.637 241.598 579.963 242.613 578.862 243.343C577.785 244.083 576.401 244.443 574.697 244.443Z" fill="#FF892F"/>
<path d="M593.85 244.443C592.454 244.443 591.223 244.178 590.158 243.639C589.081 243.079 588.241 242.307 587.65 241.313C587.046 240.33 586.75 239.188 586.75 237.887C586.75 236.597 587.046 235.466 587.65 234.504C588.241 233.521 589.081 232.749 590.158 232.178C591.223 231.617 592.454 231.332 593.85 231.332C595.27 231.332 596.512 231.617 597.589 232.178C598.654 232.749 599.482 233.521 600.05 234.504C600.642 235.466 600.95 236.597 600.95 237.887C600.95 239.188 600.642 240.33 600.05 241.313C599.482 242.307 598.654 243.079 597.589 243.639C596.512 244.178 595.27 244.443 593.85 244.443ZM593.85 242.37C595.199 242.37 596.276 241.979 597.068 241.186C597.885 240.372 598.299 239.272 598.299 237.887C598.299 236.513 597.885 235.424 597.068 234.631C596.276 233.817 595.199 233.404 593.85 233.404C592.525 233.404 591.448 233.817 590.631 234.631C589.803 235.424 589.401 236.513 589.401 237.887C589.401 239.272 589.803 240.372 590.631 241.186C591.448 241.979 592.525 242.37 593.85 242.37Z" fill="#FF892F"/>
<path d="M607.28 244.231V231.543H612.486C613.622 231.543 614.545 231.734 615.279 232.093C616.036 232.432 616.58 232.897 616.935 233.489C617.314 234.06 617.503 234.705 617.503 235.434C617.503 236.196 617.267 236.904 616.793 237.549C616.344 238.173 615.657 238.638 614.711 238.945L617.645 244.231H614.663L612.013 239.241H609.883V244.231H607.28ZM609.883 237.549H612.344C613.196 237.549 613.823 237.369 614.237 236.999C614.64 236.608 614.853 236.1 614.853 235.477C614.853 234.885 614.64 234.409 614.237 234.039C613.823 233.679 613.173 233.489 612.297 233.489H609.883V237.549Z" fill="#FF892F"/>
<path d="M627.249 244.231V233.404H623.131V231.543H633.97V233.404H629.852V244.231H627.249Z" fill="#FF892F"/>
<path d="M639.945 244.231V231.543H649.222V233.404H642.548V236.915H648.606V238.691H642.548V242.37H649.222V244.231H639.945Z" fill="#FF892F"/>
<mask id="mask8_650_2272" style="mask-type:luminance" maskUnits="userSpaceOnUse" x="2" y="57" width="248" height="54">
<path d="M2 57.4437H249.293V110.129H2V57.4437Z" fill="white"/>
</mask>
<g mask="url(#mask8_650_2272)">
<path d="M244.406 57.486C242.146 57.486 240.336 59.1036 240.336 61.1231C240.336 61.1971 240.336 61.2606 240.336 61.3346H121.866L76.0615 105.488H-21.5826C-21.9613 103.807 -23.5469 102.527 -25.5821 102.527C-27.8422 102.527 -29.6526 104.145 -29.6526 106.165C-29.6526 108.195 -27.8422 109.812 -25.5821 109.812C-23.5469 109.812 -21.8785 108.459 -21.5826 106.704H76.665L122.47 62.5399H240.715C241.318 63.8192 242.75 64.7708 244.406 64.7708C246.667 64.7708 248.477 63.1531 248.477 61.1231C248.477 59.1036 246.667 57.486 244.406 57.486Z" fill="#FF892F"/>
</g>
<mask id="mask9_650_2272" style="mask-type:luminance" maskUnits="userSpaceOnUse" x="116" y="76" width="250" height="15">
<path d="M116.849 76.7607H365.243V90.9498H116.849V76.7607Z" fill="white"/>
</mask>
<g mask="url(#mask9_650_2272)">
<path d="M286.034 76.7607L269.551 90.4528H280.153L296.636 76.7607H286.034ZM280.059 90.2202H270.533L286.212 77.1625H295.749L280.059 90.2202ZM269.374 76.7607L252.891 90.4528H263.493L279.976 76.7607H269.374ZM263.398 90.2202H253.861L269.551 77.1625H279.076L263.398 90.2202ZM252.713 76.7607L236.218 90.4528H246.832L263.315 76.7607H252.713ZM246.737 90.2202H237.2L252.891 77.1625H262.416L246.737 90.2202ZM236.041 76.7607L219.558 90.4528H230.16L246.643 76.7607H236.041ZM230.077 90.2202H220.54L236.218 77.1625H245.755L230.077 90.2202ZM219.475 76.7607L202.992 90.5374H213.594L230.077 76.8453H219.475V76.7607ZM213.416 90.2202H203.879L219.558 77.1625H229.095L213.416 90.2202ZM202.814 76.7607L186.331 90.5374H196.933L213.416 76.8453H202.814V76.7607ZM196.756 90.2202H187.219L202.897 77.1625H212.434L196.756 90.2202ZM186.154 76.7607L169.659 90.5374H180.273L196.756 76.7607H186.154ZM180.178 90.2202H170.558L186.236 77.1625H195.774L180.178 90.2202ZM169.481 76.7607L152.998 90.5374H163.6L180.095 76.7607H169.481ZM163.518 90.2202H153.98L169.659 77.1625H179.196L163.518 90.2202ZM152.821 76.7607L136.432 90.5374H147.034L163.423 76.7607H152.821ZM146.857 90.2202H137.32L152.998 77.1625H162.535L146.857 90.2202ZM136.16 76.7607L119.772 90.5374H130.374L146.762 76.7607H136.16ZM130.196 90.2202H120.659L136.338 77.1625H145.875L130.196 90.2202ZM302.695 76.7607L286.212 90.4528H296.814L313.297 76.7607H302.695ZM296.636 90.2202H287.099L302.778 77.1625H312.315L296.636 90.2202ZM319.355 76.7607L302.872 90.4528H313.474L329.957 76.7607H319.355ZM313.297 90.2202H303.76L319.45 77.1625H328.975L313.297 90.2202ZM335.933 76.7607L319.45 90.4528H330.052L346.535 76.7607H335.933ZM329.957 90.2202H320.42L336.11 77.1625H345.636L329.957 90.2202ZM352.594 76.7607L336.11 90.4528H346.713L363.196 76.7607H352.594ZM346.618 90.2202H337.081L352.771 77.1625H362.308L346.618 90.2202Z" fill="#FF892F"/>
</g>
</svg>
