<svg width="730" height="384" viewBox="0 0 730 384" fill="none" xmlns="http://www.w3.org/2000/svg">
<mask id="mask0_650_1957" style="mask-type:luminance" maskUnits="userSpaceOnUse" x="2" y="0" width="728" height="383">
<path d="M2 0H730V383H2V0Z" fill="white"/>
</mask>
<g mask="url(#mask0_650_1957)">
<path d="M2 0H730V383H2V0Z" fill="white"/>
<path d="M2 0H730V383H2V0Z" fill="#E6E6E6"/>
</g>
<mask id="mask1_650_1957" style="mask-type:luminance" maskUnits="userSpaceOnUse" x="89" y="180" width="323" height="19">
<path d="M89.7637 180.684H411.805V198.922H89.7637V180.684Z" fill="white"/>
</mask>
<g mask="url(#mask1_650_1957)">
<path d="M309.723 180.694L288.436 198.447H301.795L323.082 180.694H309.723ZM287.608 180.694L266.321 198.447H279.68L300.967 180.694H287.608ZM265.611 180.694L244.323 198.447H257.695L278.97 180.694H265.611ZM243.495 180.694L222.208 198.447H235.579L256.866 180.694H243.495ZM221.51 180.694L200.223 198.447H213.582L234.869 180.694H221.51ZM199.394 180.694L178.107 198.447H191.466L212.754 180.694H199.394ZM177.279 180.694L155.992 198.447H169.351L190.638 180.694H177.279ZM155.282 180.694L133.995 198.447H147.354L168.641 180.694H155.282ZM133.166 180.694L111.879 198.447H125.25L146.526 180.694H133.166ZM111.051 180.694L89.7637 198.447H103.135L124.422 180.694H111.051ZM331.839 180.694L310.552 198.447H323.911L345.198 180.694H331.839ZM353.836 180.694L332.549 198.447H345.908L367.195 180.694H353.836ZM375.939 180.694L354.664 198.447H368.023L389.311 180.694H375.939ZM398.055 180.694L376.768 198.447H390.139L411.426 180.694H398.055Z" fill="#FF892F"/>
</g>
<path d="M106.95 120.124C103.826 120.124 101.057 119.574 98.6672 118.474C96.2652 117.375 94.4074 115.799 93.0821 113.737C91.7569 111.686 91.0942 109.276 91.0942 106.505C91.0942 103.746 91.7569 101.335 93.0821 99.2734C94.4074 97.2222 96.2652 95.6362 98.6672 94.5366C101.057 93.4159 103.826 92.8449 106.95 92.8449C109.056 92.8449 110.938 93.0458 112.583 93.437C114.215 93.8388 115.718 94.4414 117.079 95.2556V100.669C115.848 99.7703 114.44 99.1253 112.867 98.7236C111.281 98.3006 109.482 98.0892 107.471 98.0892C105.601 98.0892 103.921 98.4487 102.406 99.1465C100.915 99.8232 99.7322 100.796 98.8565 102.065C98.0046 103.333 97.5786 104.814 97.5786 106.505C97.5786 108.229 97.9691 109.741 98.7619 111.031C99.5783 112.299 100.714 113.293 102.17 113.991C103.613 114.7 105.294 115.048 107.187 115.048C108.914 115.048 110.429 114.774 111.731 114.203V109.17H106.997V104.983H117.884V117.586C115.103 119.278 111.458 120.124 106.95 120.124Z" fill="#FF892F"/>
<path d="M121.434 93.3947H127.823V119.574H121.434V93.3947Z" fill="#FF892F"/>
<path d="M132.198 93.3947H144.883C148.196 93.3947 150.776 94.1454 152.645 95.6362C154.503 97.1376 155.438 99.2733 155.438 102.065C155.438 104.01 154.929 105.659 153.923 107.013C152.906 108.366 151.486 109.36 149.663 109.973L155.248 119.574H148.717L143.558 110.692H138.588V119.574H132.198V93.3947ZM143.747 105.956C145.38 105.956 146.658 105.649 147.581 105.025C148.527 104.412 149.001 103.418 149.001 102.065C149.001 100.627 148.527 99.6328 147.581 99.0619C146.658 98.4698 145.38 98.1737 143.747 98.1737H138.588V105.956H143.747Z" fill="#FF892F"/>
<path d="M173.819 120.124C170.885 120.124 168.211 119.563 165.82 118.432C163.454 117.279 161.573 115.672 160.188 113.61C158.827 111.559 158.153 109.191 158.153 106.505C158.153 103.83 158.827 101.462 160.188 99.4002C161.573 97.349 163.454 95.7419 165.82 94.5789C168.211 93.4264 170.885 92.8449 173.819 92.8449C176.754 92.8449 179.405 93.4264 181.771 94.5789C184.138 95.7419 185.995 97.349 187.356 99.4002C188.741 101.462 189.439 103.83 189.439 106.505C189.439 109.191 188.741 111.559 187.356 113.61C185.995 115.672 184.138 117.279 181.771 118.432C179.405 119.563 176.754 120.124 173.819 120.124ZM173.819 114.879C175.488 114.879 177.014 114.541 178.411 113.864C179.795 113.188 180.884 112.215 181.676 110.946C182.493 109.677 182.907 108.197 182.907 106.505C182.907 104.845 182.505 103.376 181.724 102.107C180.931 100.838 179.842 99.8654 178.458 99.1888C177.062 98.5121 175.523 98.1738 173.819 98.1738C172.08 98.1738 170.518 98.5121 169.134 99.1888C167.773 99.8654 166.684 100.838 165.868 102.107C165.04 103.376 164.637 104.845 164.637 106.505C164.637 108.197 165.04 109.677 165.868 110.946C166.684 112.215 167.785 113.188 169.181 113.864C170.565 114.541 172.116 114.879 173.819 114.879Z" fill="#FF892F"/>
<path d="M201.736 120.124C199.937 120.124 198.15 119.965 196.387 119.658C194.648 119.383 193.216 118.982 192.08 118.474V113.484C193.559 114.139 195.086 114.625 196.671 114.964C198.28 115.281 199.807 115.429 201.262 115.429C202.872 115.429 204.102 115.175 204.954 114.668C205.806 114.16 206.232 113.473 206.232 112.595C206.232 111.919 206.007 111.369 205.569 110.946C205.155 110.502 204.552 110.09 203.771 109.72C202.978 109.36 201.747 108.874 200.079 108.282C197.357 107.267 195.393 106.156 194.163 104.941C192.932 103.703 192.317 102.17 192.317 100.331C192.317 98.8716 192.755 97.5711 193.642 96.4398C194.518 95.2873 195.772 94.3992 197.381 93.7753C199.014 93.1621 200.895 92.8449 203.014 92.8449C204.741 92.8449 206.279 92.9718 207.605 93.2255C208.954 93.4793 210.279 93.8599 211.581 94.3674V99.2311C209.119 98.1632 206.658 97.624 204.197 97.624C202.647 97.624 201.416 97.8671 200.505 98.3429C199.618 98.8293 199.18 99.5165 199.18 100.415C199.18 101.071 199.381 101.599 199.795 102.022C200.197 102.445 200.789 102.826 201.546 103.164C202.304 103.481 203.534 103.947 205.238 104.56C207.226 105.321 208.764 106.04 209.877 106.717C211.013 107.393 211.829 108.218 212.338 109.17C212.87 110.1 213.142 111.242 213.142 112.595C213.142 114.964 212.172 116.814 210.255 118.136C208.362 119.468 205.522 120.124 201.736 120.124Z" fill="#FF892F"/>
<path d="M230.531 93.3947H237.346L245.393 112.003L253.439 93.3947H260.207L248.517 119.574H242.269L230.531 93.3947Z" fill="#FF892F"/>
<path d="M263.719 93.3947H284.024V98.1737H270.108V104.222H280.332V108.789H270.108V114.837H284.024V119.574H263.719V93.3947Z" fill="#FF892F"/>
<path d="M287.132 93.3947H293.333L305.544 110.312V93.3947H311.934V119.574H305.781L293.522 102.657V119.574H287.132V93.3947Z" fill="#FF892F"/>
<path d="M316.285 93.3947H336.59V98.1737H322.674V104.222H332.898V108.789H322.674V114.837H336.59V119.574H316.285V93.3947Z" fill="#FF892F"/>
<path d="M338.847 115.81L353.188 98.1737H339.225V93.3947H361.045V97.2433L346.798 114.837H361.897V119.574H338.847V115.81Z" fill="#FF892F"/>
<path d="M378.19 120.123C373.931 120.123 370.712 119.13 368.535 117.121C366.358 115.122 365.269 112.416 365.269 109.001V93.3947H371.611V109.085C371.611 110.978 372.191 112.426 373.363 113.441C374.522 114.435 376.132 114.922 378.19 114.922C380.202 114.922 381.788 114.435 382.924 113.441C384.083 112.426 384.675 110.978 384.675 109.085V93.3947H391.065V109.001C391.065 112.416 389.976 115.122 387.799 117.121C385.645 119.13 382.45 120.123 378.19 120.123Z" fill="#FF892F"/>
<path d="M395.239 93.3947H415.544V98.1737H401.628V104.222H411.852V108.789H401.628V114.837H415.544V119.574H395.239V93.3947Z" fill="#FF892F"/>
<path d="M418.653 93.3947H425.043V114.837H438.437V119.574H418.653V93.3947Z" fill="#FF892F"/>
<path d="M452.032 93.3947H458.279L469.97 119.574H463.486L460.977 113.864H449.334L446.825 119.574H440.293L452.032 93.3947ZM459.273 109.339L455.155 99.4002L450.99 109.339H459.273Z" fill="#FF892F"/>
<path d="M475.043 119.574C474.38 119.574 473.812 119.383 473.339 118.982C472.866 118.59 472.629 118.083 472.629 117.459C472.629 116.867 472.866 116.359 473.339 115.937C473.812 115.514 474.38 115.302 475.043 115.302C475.705 115.302 476.273 115.514 476.747 115.937C477.22 116.359 477.457 116.867 477.457 117.459C477.457 118.083 477.22 118.59 476.747 118.982C476.273 119.383 475.705 119.574 475.043 119.574Z" fill="#FF892F"/>
<path d="M94.6915 224.811H89.8638V223.204H101.602V224.811H96.7268V235.892H94.6915V224.811Z" fill="#333333"/>
<path d="M107.424 226.207C108.903 226.207 110.039 226.535 110.831 227.18C111.612 227.835 112.015 228.808 112.015 230.098V235.892H110.169V234.623C109.814 235.078 109.34 235.427 108.749 235.681C108.145 235.903 107.435 236.019 106.619 236.019C105.412 236.019 104.453 235.765 103.732 235.258C102.998 234.729 102.643 234.031 102.643 233.185C102.643 232.339 102.986 231.663 103.684 231.155C104.371 230.627 105.483 230.352 106.998 230.352H110.074V230.013C110.074 229.284 109.814 228.723 109.317 228.322C108.843 227.93 108.133 227.73 107.187 227.73C106.548 227.73 105.921 227.835 105.294 228.026C104.69 228.195 104.181 228.438 103.779 228.745L102.974 227.433C103.507 227.042 104.158 226.746 104.915 226.545C105.696 226.323 106.536 226.207 107.424 226.207ZM106.95 234.665C107.707 234.665 108.346 234.528 108.891 234.243C109.423 233.936 109.814 233.513 110.074 232.974V231.62H107.045C105.4 231.62 104.584 232.117 104.584 233.101C104.584 233.587 104.785 233.968 105.199 234.243C105.637 234.528 106.217 234.665 106.95 234.665Z" fill="#333333"/>
<path d="M118.674 236.019C117.787 236.019 116.935 235.913 116.118 235.723C115.326 235.501 114.698 235.215 114.225 234.877L115.03 233.524C115.503 233.809 116.071 234.052 116.734 234.243C117.42 234.412 118.118 234.496 118.816 234.496C120.52 234.496 121.372 234.063 121.372 233.185C121.372 232.91 121.242 232.678 120.993 232.509C120.769 232.339 120.485 232.213 120.141 232.128C119.822 232.043 119.337 231.959 118.674 231.874C117.822 231.768 117.112 231.642 116.544 231.494C116 231.324 115.55 231.06 115.172 230.69C114.793 230.299 114.604 229.76 114.604 229.083C114.604 228.216 114.994 227.518 115.787 227.011C116.603 226.482 117.692 226.207 119.053 226.207C119.775 226.207 120.485 226.292 121.183 226.461C121.905 226.609 122.508 226.82 122.981 227.095L122.129 228.449C121.242 227.941 120.212 227.687 119.053 227.687C118.225 227.687 117.597 227.814 117.16 228.068C116.71 228.3 116.497 228.607 116.497 228.998C116.497 229.316 116.615 229.569 116.876 229.76C117.124 229.929 117.42 230.056 117.775 230.14C118.118 230.225 118.627 230.331 119.29 230.436C120.141 230.584 120.828 230.732 121.372 230.901C121.905 231.049 122.366 231.303 122.745 231.663C123.123 232.001 123.313 232.498 123.313 233.143C123.313 234.021 122.887 234.729 122.035 235.258C121.206 235.765 120.094 236.019 118.674 236.019Z" fill="#333333"/>
<path d="M129.666 226.207C131.145 226.207 132.281 226.535 133.074 227.18C133.855 227.835 134.257 228.808 134.257 230.098V235.892H132.411V234.623C132.056 235.078 131.583 235.427 130.991 235.681C130.387 235.903 129.678 236.019 128.861 236.019C127.654 236.019 126.696 235.765 125.974 235.258C125.24 234.729 124.885 234.031 124.885 233.185C124.885 232.339 125.228 231.663 125.927 231.155C126.613 230.627 127.725 230.352 129.24 230.352H132.316V230.013C132.316 229.284 132.056 228.723 131.559 228.322C131.086 227.93 130.376 227.73 129.429 227.73C128.79 227.73 128.163 227.835 127.536 228.026C126.932 228.195 126.424 228.438 126.021 228.745L125.217 227.433C125.749 227.042 126.4 226.746 127.157 226.545C127.938 226.323 128.778 226.207 129.666 226.207ZM129.192 234.665C129.95 234.665 130.589 234.528 131.133 234.243C131.665 233.936 132.056 233.513 132.316 232.974V231.62H129.287C127.642 231.62 126.826 232.117 126.826 233.101C126.826 233.587 127.027 233.968 127.441 234.243C127.879 234.528 128.459 234.665 129.192 234.665Z" fill="#333333"/>
<path d="M153.413 222.443V235.892H151.567V234.369C151.117 234.909 150.573 235.321 149.91 235.596C149.248 235.881 148.514 236.019 147.733 236.019C146.692 236.019 145.757 235.807 144.941 235.384C144.112 234.962 143.473 234.391 143 233.65C142.527 232.921 142.29 232.075 142.29 231.113C142.29 230.13 142.527 229.273 143 228.533C143.473 227.804 144.112 227.243 144.941 226.841C145.757 226.418 146.692 226.207 147.733 226.207C148.49 226.207 149.177 226.334 149.816 226.588C150.478 226.841 151.023 227.222 151.472 227.73V222.443H153.413ZM147.875 234.496C148.561 234.496 149.177 234.359 149.721 234.073C150.289 233.798 150.715 233.397 150.999 232.889C151.307 232.361 151.472 231.768 151.472 231.113C151.472 230.436 151.307 229.844 150.999 229.337C150.715 228.829 150.289 228.438 149.721 228.152C149.177 227.878 148.561 227.73 147.875 227.73C147.177 227.73 146.562 227.878 146.029 228.152C145.485 228.438 145.047 228.829 144.704 229.337C144.384 229.844 144.231 230.436 144.231 231.113C144.231 231.768 144.384 232.361 144.704 232.889C145.047 233.397 145.485 233.798 146.029 234.073C146.562 234.359 147.177 234.496 147.875 234.496Z" fill="#333333"/>
<path d="M166.79 231.155C166.79 231.303 166.766 231.472 166.742 231.663H158.033C158.152 232.509 158.566 233.206 159.264 233.735C159.986 234.243 160.873 234.496 161.915 234.496C163.204 234.496 164.246 234.105 165.038 233.312L166.08 234.454C165.606 234.962 165.003 235.363 164.281 235.638C163.547 235.892 162.743 236.019 161.867 236.019C160.731 236.019 159.714 235.807 158.838 235.384C157.951 234.962 157.276 234.391 156.803 233.65C156.329 232.889 156.093 232.043 156.093 231.113C156.093 230.183 156.329 229.358 156.803 228.618C157.276 227.856 157.903 227.264 158.696 226.841C159.512 226.418 160.447 226.207 161.489 226.207C162.494 226.207 163.394 226.418 164.186 226.841C165.003 227.264 165.63 227.856 166.08 228.618C166.553 229.358 166.79 230.204 166.79 231.155ZM161.489 227.687C160.542 227.687 159.749 227.941 159.122 228.449C158.483 228.956 158.128 229.622 158.033 230.436H164.944C164.814 229.622 164.435 228.956 163.808 228.449C163.169 227.941 162.4 227.687 161.489 227.687Z" fill="#333333"/>
<path d="M179.603 236.019C178.49 236.019 177.52 235.807 176.668 235.384C175.816 234.962 175.13 234.391 174.633 233.65C174.16 232.889 173.923 232.043 173.923 231.113C173.923 230.161 174.16 229.316 174.633 228.575C175.13 227.846 175.816 227.264 176.668 226.841C177.52 226.418 178.49 226.207 179.603 226.207C180.573 226.207 181.449 226.397 182.206 226.757C182.963 227.095 183.543 227.592 183.957 228.237L182.49 229.125C182.135 228.649 181.709 228.3 181.212 228.068C180.739 227.846 180.182 227.73 179.555 227.73C178.857 227.73 178.23 227.878 177.662 228.152C177.118 228.438 176.68 228.829 176.337 229.337C176.017 229.844 175.863 230.436 175.863 231.113C175.863 231.79 176.017 232.382 176.337 232.889C176.68 233.397 177.118 233.799 177.662 234.073C178.23 234.359 178.857 234.496 179.555 234.496C180.182 234.496 180.739 234.391 181.212 234.158C181.709 233.904 182.135 233.555 182.49 233.101L183.957 233.947C183.543 234.602 182.963 235.11 182.206 235.469C181.449 235.839 180.573 236.019 179.603 236.019Z" fill="#333333"/>
<path d="M190.402 226.207C191.881 226.207 193.017 226.535 193.809 227.18C194.59 227.835 194.993 228.808 194.993 230.098V235.892H193.147V234.623C192.792 235.078 192.318 235.427 191.727 235.681C191.123 235.903 190.413 236.019 189.597 236.019C188.39 236.019 187.432 235.765 186.71 235.258C185.976 234.729 185.621 234.031 185.621 233.185C185.621 232.339 185.964 231.663 186.662 231.155C187.349 230.627 188.461 230.352 189.976 230.352H193.052V230.013C193.052 229.284 192.792 228.723 192.295 228.322C191.821 227.93 191.112 227.73 190.165 227.73C189.526 227.73 188.899 227.835 188.272 228.026C187.668 228.195 187.159 228.438 186.757 228.745L185.952 227.433C186.485 227.042 187.136 226.746 187.893 226.545C188.674 226.323 189.514 226.207 190.402 226.207ZM189.928 234.665C190.686 234.665 191.324 234.528 191.869 234.243C192.401 233.936 192.792 233.513 193.052 232.974V231.62H190.023C188.378 231.62 187.562 232.117 187.562 233.101C187.562 233.587 187.763 233.968 188.177 234.243C188.615 234.528 189.195 234.665 189.928 234.665Z" fill="#333333"/>
<path d="M212.018 226.207C213.367 226.207 214.443 226.567 215.236 227.264C216.017 227.973 216.42 228.998 216.42 230.352V235.892H214.432V230.563C214.432 229.633 214.195 228.945 213.722 228.491C213.248 228.015 212.562 227.772 211.686 227.772C210.704 227.772 209.911 228.057 209.32 228.618C208.752 229.157 208.468 229.929 208.468 230.944V235.892H206.527V230.563C206.527 229.633 206.267 228.945 205.77 228.491C205.297 228.015 204.61 227.772 203.735 227.772C202.753 227.772 201.96 228.057 201.368 228.618C200.8 229.157 200.516 229.929 200.516 230.944V235.892H198.576V226.292H200.422V227.73C200.824 227.222 201.345 226.841 201.984 226.588C202.611 226.334 203.332 226.207 204.161 226.207C204.977 226.207 205.699 226.366 206.338 226.672C207.001 226.958 207.498 227.391 207.853 227.983C208.255 227.423 208.823 226.989 209.557 226.672C210.278 226.366 211.095 226.207 212.018 226.207Z" fill="#333333"/>
<path d="M225.648 226.207C226.689 226.207 227.612 226.418 228.44 226.841C229.257 227.243 229.907 227.804 230.381 228.533C230.854 229.273 231.091 230.13 231.091 231.113C231.091 232.075 230.854 232.921 230.381 233.65C229.907 234.391 229.257 234.962 228.44 235.384C227.612 235.807 226.689 236.019 225.648 236.019C224.855 236.019 224.133 235.881 223.47 235.596C222.808 235.321 222.251 234.909 221.814 234.369V235.892H219.968V222.443H221.908V227.73C222.346 227.222 222.879 226.841 223.518 226.588C224.18 226.334 224.89 226.207 225.648 226.207ZM225.506 234.496C226.192 234.496 226.807 234.359 227.351 234.073C227.884 233.798 228.31 233.397 228.629 232.889C228.937 232.361 229.103 231.768 229.103 231.113C229.103 230.436 228.937 229.844 228.629 229.337C228.31 228.829 227.884 228.438 227.351 228.152C226.807 227.878 226.192 227.73 225.506 227.73C224.807 227.73 224.18 227.878 223.612 228.152C223.068 228.438 222.642 228.829 222.334 229.337C222.05 229.844 221.908 230.436 221.908 231.113C221.908 231.768 222.05 232.361 222.334 232.889C222.642 233.397 223.068 233.798 223.612 234.073C224.18 234.359 224.807 234.496 225.506 234.496Z" fill="#333333"/>
<path d="M233.77 226.292H235.711V235.892H233.77V226.292ZM234.764 224.473C234.386 224.473 234.066 224.367 233.818 224.135C233.557 223.913 233.439 223.648 233.439 223.331C233.439 223.024 233.557 222.76 233.818 222.528C234.066 222.306 234.386 222.189 234.764 222.189C235.143 222.189 235.439 222.306 235.664 222.528C235.912 222.728 236.042 222.982 236.042 223.289C236.042 223.627 235.912 223.913 235.664 224.135C235.439 224.367 235.143 224.473 234.764 224.473Z" fill="#333333"/>
<path d="M244.008 236.019C242.932 236.019 241.973 235.807 241.121 235.384C240.269 234.962 239.607 234.391 239.133 233.65C238.66 232.889 238.423 232.043 238.423 231.113C238.423 230.161 238.66 229.316 239.133 228.575C239.607 227.846 240.269 227.264 241.121 226.841C241.973 226.418 242.932 226.207 244.008 226.207C245.073 226.207 246.02 226.418 246.848 226.841C247.7 227.264 248.363 227.846 248.836 228.575C249.333 229.316 249.593 230.161 249.593 231.113C249.593 232.043 249.333 232.889 248.836 233.65C248.363 234.391 247.7 234.962 246.848 235.384C246.02 235.807 245.073 236.019 244.008 236.019ZM244.008 234.496C244.695 234.496 245.31 234.359 245.854 234.073C246.422 233.799 246.848 233.397 247.132 232.889C247.44 232.361 247.606 231.768 247.606 231.113C247.606 230.436 247.44 229.844 247.132 229.337C246.848 228.829 246.422 228.438 245.854 228.152C245.31 227.878 244.695 227.73 244.008 227.73C243.31 227.73 242.695 227.878 242.162 228.152C241.618 228.438 241.18 228.829 240.837 229.337C240.518 229.844 240.364 230.436 240.364 231.113C240.364 231.768 240.518 232.361 240.837 232.889C241.18 233.397 241.618 233.799 242.162 234.073C242.695 234.359 243.31 234.496 244.008 234.496Z" fill="#333333"/>
<path d="M261.215 223.204V235.892H259.227V224.811H256.009V223.204H261.215Z" fill="#333333"/>
<path d="M270.124 236.019C268.988 236.019 267.97 235.765 267.094 235.258C266.242 234.75 265.556 234.021 265.059 233.058C264.586 232.075 264.349 230.901 264.349 229.548C264.349 228.226 264.586 227.074 265.059 226.08C265.556 225.097 266.242 224.346 267.094 223.839C267.97 223.331 268.988 223.077 270.124 223.077C271.224 223.077 272.206 223.331 273.058 223.839C273.934 224.346 274.632 225.097 275.141 226.08C275.638 227.074 275.898 228.226 275.898 229.548C275.898 230.901 275.638 232.075 275.141 233.058C274.632 234.021 273.934 234.75 273.058 235.258C272.206 235.765 271.224 236.019 270.124 236.019ZM270.124 234.412C271.259 234.412 272.159 234.01 272.821 233.185C273.508 232.339 273.863 231.134 273.863 229.548C273.863 227.973 273.508 226.778 272.821 225.953C272.159 225.107 271.259 224.685 270.124 224.685C268.988 224.685 268.065 225.107 267.378 225.953C266.68 226.778 266.337 227.973 266.337 229.548C266.337 231.134 266.68 232.339 267.378 233.185C268.065 234.01 268.988 234.412 270.124 234.412Z" fill="#333333"/>
<path d="M288.166 223.204V224.473L282.439 235.892H280.262L285.894 224.811H279.41V227.053H277.469V223.204H288.166Z" fill="#333333"/>
<path d="M95.9695 166.335C94.9282 166.335 94.0053 166.176 93.2243 165.87C92.4315 165.531 91.8044 165.066 91.3311 164.474C90.8814 163.882 90.6448 163.163 90.6211 162.317H93.3663C93.39 162.909 93.6266 163.406 94.0763 163.797C94.5496 164.199 95.1767 164.389 95.9695 164.389C96.6558 164.389 97.2001 164.252 97.5788 163.966C97.9811 163.66 98.1941 163.269 98.1941 162.782C98.1941 162.254 98.0166 161.841 97.6734 161.556C97.3184 161.281 96.8451 161.048 96.2535 160.879C95.65 160.689 95.0229 160.488 94.3603 160.287C93.248 159.949 92.4197 159.515 91.8517 158.976C91.2837 158.447 90.9997 157.739 90.9997 156.861C90.9642 156.1 91.1536 155.455 91.5677 154.916C91.97 154.387 92.538 153.975 93.2716 153.689C93.9934 153.383 94.8099 153.224 95.7329 153.224C96.6795 153.224 97.5078 153.383 98.2414 153.689C98.9632 154.007 99.5312 154.429 99.9453 154.958C100.348 155.497 100.572 156.142 100.608 156.904H97.8154C97.8154 156.46 97.6261 156.058 97.2475 155.719C96.8688 155.36 96.3482 155.17 95.6855 155.17C95.1176 155.17 94.6442 155.296 94.2656 155.55C93.8869 155.804 93.6976 156.185 93.6976 156.692C93.6976 157.115 93.8396 157.453 94.1236 157.707C94.4312 157.961 94.8454 158.172 95.3542 158.342C95.8512 158.511 96.4428 158.68 97.1055 158.849C97.8273 159.082 98.4781 159.346 99.046 159.653C99.614 159.938 100.064 160.319 100.419 160.794C100.797 161.249 100.987 161.852 100.987 162.613C100.987 163.29 100.797 163.914 100.419 164.474C100.04 165.045 99.472 165.489 98.7147 165.827C97.9811 166.166 97.07 166.335 95.9695 166.335Z" fill="#FF892F"/>
<path d="M107.272 166.123V153.436H116.549V155.297H109.875V158.807H115.934V160.583H109.875V164.262H116.549V166.123H107.272Z" fill="#FF892F"/>
<path d="M129.218 166.335C127.893 166.335 126.721 166.07 125.716 165.531C124.698 165.003 123.917 164.252 123.349 163.29C122.805 162.306 122.544 161.165 122.544 159.864C122.544 158.574 122.828 157.432 123.396 156.438C123.988 155.423 124.816 154.641 125.858 154.07C126.923 153.51 128.189 153.224 129.644 153.224C131.313 153.224 132.685 153.594 133.762 154.324C134.862 155.032 135.572 156.005 135.892 157.242H133.005C132.78 156.65 132.389 156.206 131.821 155.889C131.253 155.55 130.52 155.381 129.644 155.381C128.224 155.381 127.112 155.793 126.331 156.608C125.574 157.401 125.195 158.49 125.195 159.864C125.195 161.281 125.574 162.359 126.331 163.121C127.112 163.882 128.153 164.262 129.455 164.262C130.745 164.262 131.703 163.956 132.342 163.332C133.005 162.719 133.407 161.894 133.573 160.879H129.975V159.145H136.176V166.123H133.762L133.573 164.474C133.123 165.066 132.555 165.531 131.869 165.87C131.171 166.176 130.283 166.335 129.218 166.335Z" fill="#FF892F"/>
<path d="M148.2 166.335C147.159 166.335 146.212 166.145 145.36 165.785C144.532 165.426 143.869 164.876 143.372 164.136C142.863 163.374 142.615 162.423 142.615 161.26V153.436H145.218V161.302C145.218 162.296 145.478 163.025 146.023 163.501C146.555 163.988 147.301 164.22 148.247 164.22C149.158 164.22 149.88 163.988 150.424 163.501C150.992 163.025 151.276 162.296 151.276 161.302V153.436H153.88V161.26C153.88 162.423 153.607 163.374 153.075 164.136C152.566 164.876 151.892 165.426 151.04 165.785C150.188 166.145 149.241 166.335 148.2 166.335Z" fill="#FF892F"/>
<path d="M160.54 166.123V153.436H165.746C166.882 153.436 167.805 153.626 168.539 153.985C169.296 154.324 169.84 154.789 170.195 155.381C170.574 155.952 170.763 156.597 170.763 157.327C170.763 158.088 170.526 158.796 170.053 159.441C169.603 160.065 168.917 160.53 167.971 160.837L170.905 166.123H167.923L165.273 161.133H163.143V166.123H160.54ZM163.143 159.441H165.604C166.456 159.441 167.083 159.261 167.497 158.891C167.9 158.5 168.113 157.993 168.113 157.369C168.113 156.777 167.9 156.301 167.497 155.931C167.083 155.571 166.432 155.381 165.557 155.381H163.143V159.441Z" fill="#FF892F"/>
<path d="M177.196 166.123V153.436H179.8V166.123H177.196Z" fill="#FF892F"/>
<path d="M186.587 166.123V153.436H191.415C193.083 153.436 194.456 153.711 195.532 154.239C196.597 154.778 197.39 155.529 197.899 156.481C198.432 157.411 198.704 158.511 198.704 159.779C198.704 161.08 198.432 162.211 197.899 163.163C197.39 164.093 196.597 164.833 195.532 165.362C194.456 165.87 193.083 166.123 191.415 166.123H186.587ZM189.19 164.136H191.32C192.48 164.136 193.414 163.966 194.113 163.628C194.799 163.29 195.296 162.803 195.58 162.148C195.887 161.503 196.053 160.71 196.053 159.779C196.053 158.881 195.887 158.109 195.58 157.453C195.296 156.808 194.799 156.312 194.113 155.973C193.414 155.614 192.48 155.423 191.32 155.423H189.19V164.136Z" fill="#FF892F"/>
<path d="M204.125 166.123L209.284 153.436H212.219L217.425 166.123H214.633L213.497 163.205H208.006L206.823 166.123H204.125ZM208.716 161.387H212.787L210.751 156.1L208.716 161.387Z" fill="#FF892F"/>
<path d="M223.259 166.123V153.436H228.087C229.755 153.436 231.128 153.711 232.204 154.239C233.269 154.778 234.062 155.529 234.571 156.481C235.103 157.411 235.376 158.511 235.376 159.779C235.376 161.08 235.103 162.211 234.571 163.163C234.062 164.093 233.269 164.833 232.204 165.362C231.128 165.87 229.755 166.123 228.087 166.123H223.259ZM225.862 164.136H227.992C229.152 164.136 230.086 163.966 230.784 163.628C231.471 163.29 231.968 162.803 232.252 162.148C232.559 161.503 232.725 160.71 232.725 159.779C232.725 158.881 232.559 158.109 232.252 157.453C231.968 156.808 231.471 156.312 230.784 155.973C230.086 155.614 229.152 155.423 227.992 155.423H225.862V164.136Z" fill="#FF892F"/>
<path d="M254.253 166.123V161.598L249.472 153.436H252.407L255.531 159.314L258.654 153.436H261.589L256.808 161.598V166.123H254.253Z" fill="#FF892F"/>
<path d="M282.559 166.335C281.103 166.335 279.861 166.07 278.82 165.531C277.802 164.971 277.021 164.199 276.453 163.205C275.909 162.222 275.648 161.091 275.648 159.822C275.648 158.532 275.909 157.39 276.453 156.396C277.021 155.413 277.802 154.641 278.82 154.07C279.861 153.51 281.103 153.224 282.559 153.224C284.263 153.224 285.647 153.605 286.724 154.366C287.824 155.127 288.499 156.185 288.759 157.538H285.919C285.73 156.861 285.351 156.333 284.783 155.931C284.215 155.54 283.458 155.339 282.511 155.339C281.186 155.339 280.145 155.741 279.388 156.523C278.654 157.316 278.299 158.416 278.299 159.822C278.299 161.207 278.654 162.296 279.388 163.078C280.145 163.871 281.186 164.262 282.511 164.262C283.458 164.262 284.215 164.083 284.783 163.713C285.351 163.353 285.73 162.846 285.919 162.19H288.759C288.499 163.491 287.824 164.506 286.724 165.235C285.647 165.975 284.263 166.335 282.559 166.335Z" fill="#FF892F"/>
<path d="M301.712 166.335C300.316 166.335 299.085 166.07 298.02 165.531C296.943 164.971 296.103 164.199 295.512 163.205C294.908 162.222 294.612 161.08 294.612 159.779C294.612 158.49 294.908 157.358 295.512 156.396C296.103 155.413 296.943 154.641 298.02 154.07C299.085 153.51 300.316 153.224 301.712 153.224C303.132 153.224 304.374 153.51 305.451 154.07C306.516 154.641 307.344 155.413 307.912 156.396C308.504 157.358 308.812 158.49 308.812 159.779C308.812 161.08 308.504 162.222 307.912 163.205C307.344 164.199 306.516 164.971 305.451 165.531C304.374 166.07 303.132 166.335 301.712 166.335ZM301.712 164.262C303.061 164.262 304.138 163.871 304.93 163.078C305.747 162.264 306.161 161.165 306.161 159.779C306.161 158.405 305.747 157.316 304.93 156.523C304.138 155.709 303.061 155.296 301.712 155.296C300.387 155.296 299.31 155.709 298.493 156.523C297.665 157.316 297.263 158.405 297.263 159.779C297.263 161.165 297.665 162.264 298.493 163.078C299.31 163.871 300.387 164.262 301.712 164.262Z" fill="#FF892F"/>
<path d="M315.142 166.123V153.436H317.745L324.419 162.359V153.436H326.974V166.123H324.419L317.745 157.2V166.123H315.142Z" fill="#FF892F"/>
<path d="M333.781 166.123V153.436H342.963V155.297H336.384V158.849H341.686V160.71H336.384V166.123H333.781Z" fill="#FF892F"/>
<path d="M348.98 166.123V153.436H351.584V166.123H348.98Z" fill="#FF892F"/>
<path d="M357.472 166.123L362.631 153.436H365.566L370.772 166.123H367.98L366.844 163.205H361.353L360.17 166.123H357.472ZM362.063 161.387H366.134L364.099 156.1L362.063 161.387Z" fill="#FF892F"/>
<path d="M376.606 166.123V153.436H379.209L385.883 162.359V153.436H388.439V166.123H385.883L379.209 157.2V166.123H376.606Z" fill="#FF892F"/>
<path d="M394.82 166.123V164.347L401.352 155.381H394.867V153.436H404.333V155.212L397.802 164.178H404.381V166.123H394.82Z" fill="#FF892F"/>
<path d="M409.849 166.123L415.008 153.436H417.943L423.149 166.123H420.357L419.221 163.205H413.73L412.547 166.123H409.849ZM414.44 161.387H418.511L416.475 156.1L414.44 161.387Z" fill="#FF892F"/>
<path d="M94.6915 254.994H89.8638V253.387H101.602V254.994H96.7268V266.075H94.6915V254.994Z" fill="#333333"/>
<path d="M108.086 266.202C107.009 266.202 106.051 265.99 105.199 265.567C104.347 265.144 103.684 264.573 103.211 263.833C102.738 263.072 102.501 262.226 102.501 261.296C102.501 260.344 102.738 259.498 103.211 258.758C103.684 258.029 104.347 257.447 105.199 257.024C106.051 256.601 107.009 256.39 108.086 256.39C109.151 256.39 110.098 256.601 110.926 257.024C111.778 257.447 112.441 258.029 112.914 258.758C113.411 259.498 113.671 260.344 113.671 261.296C113.671 262.226 113.411 263.072 112.914 263.833C112.441 264.573 111.778 265.144 110.926 265.567C110.098 265.99 109.151 266.202 108.086 266.202ZM108.086 264.679C108.772 264.679 109.388 264.542 109.932 264.256C110.5 263.981 110.926 263.58 111.21 263.072C111.518 262.543 111.683 261.951 111.683 261.296C111.683 260.619 111.518 260.027 111.21 259.519C110.926 259.012 110.5 258.621 109.932 258.335C109.388 258.06 108.772 257.912 108.086 257.912C107.388 257.912 106.773 258.06 106.24 258.335C105.696 258.621 105.258 259.012 104.915 259.519C104.595 260.027 104.442 260.619 104.442 261.296C104.442 261.951 104.595 262.543 104.915 263.072C105.258 263.58 105.696 263.981 106.24 264.256C106.773 264.542 107.388 264.679 108.086 264.679Z" fill="#333333"/>
<path d="M126.475 252.626V266.075H124.629V264.552C124.18 265.091 123.635 265.504 122.973 265.779C122.31 266.064 121.577 266.202 120.796 266.202C119.754 266.202 118.82 265.99 118.003 265.567C117.175 265.144 116.536 264.573 116.063 263.833C115.589 263.104 115.353 262.258 115.353 261.296C115.353 260.312 115.589 259.456 116.063 258.716C116.536 257.986 117.175 257.426 118.003 257.024C118.82 256.601 119.754 256.39 120.796 256.39C121.553 256.39 122.239 256.517 122.878 256.77C123.541 257.024 124.085 257.405 124.535 257.912V252.626H126.475ZM120.938 264.679C121.624 264.679 122.239 264.542 122.784 264.256C123.351 263.981 123.777 263.58 124.061 263.072C124.369 262.543 124.535 261.951 124.535 261.296C124.535 260.619 124.369 260.027 124.061 259.519C123.777 259.012 123.351 258.621 122.784 258.335C122.239 258.06 121.624 257.912 120.938 257.912C120.239 257.912 119.624 258.06 119.092 258.335C118.547 258.621 118.11 259.012 117.766 259.519C117.447 260.027 117.293 260.619 117.293 261.296C117.293 261.951 117.447 262.543 117.766 263.072C118.11 263.58 118.547 263.981 119.092 264.256C119.624 264.542 120.239 264.679 120.938 264.679Z" fill="#333333"/>
<path d="M134.74 266.202C133.664 266.202 132.705 265.99 131.853 265.567C131.001 265.144 130.339 264.573 129.865 263.833C129.392 263.072 129.155 262.226 129.155 261.296C129.155 260.344 129.392 259.498 129.865 258.758C130.339 258.029 131.001 257.447 131.853 257.024C132.705 256.601 133.664 256.39 134.74 256.39C135.805 256.39 136.752 256.601 137.58 257.024C138.432 257.447 139.095 258.029 139.568 258.758C140.065 259.498 140.325 260.344 140.325 261.296C140.325 262.226 140.065 263.072 139.568 263.833C139.095 264.573 138.432 265.144 137.58 265.567C136.752 265.99 135.805 266.202 134.74 266.202ZM134.74 264.679C135.427 264.679 136.042 264.542 136.586 264.256C137.154 263.981 137.58 263.58 137.864 263.072C138.172 262.543 138.338 261.951 138.338 261.296C138.338 260.619 138.172 260.027 137.864 259.519C137.58 259.012 137.154 258.621 136.586 258.335C136.042 258.06 135.427 257.912 134.74 257.912C134.042 257.912 133.427 258.06 132.894 258.335C132.35 258.621 131.912 259.012 131.569 259.519C131.25 260.027 131.096 260.619 131.096 261.296C131.096 261.951 131.25 262.543 131.569 263.072C131.912 263.58 132.35 263.981 132.894 264.256C133.427 264.542 134.042 264.679 134.74 264.679Z" fill="#333333"/>
<path d="M146.077 266.202C145.19 266.202 144.338 266.096 143.521 265.906C142.728 265.684 142.101 265.398 141.628 265.06L142.433 263.706C142.906 263.992 143.474 264.235 144.136 264.425C144.823 264.595 145.521 264.679 146.219 264.679C147.923 264.679 148.775 264.246 148.775 263.368C148.775 263.093 148.645 262.861 148.396 262.691C148.171 262.522 147.887 262.395 147.544 262.311C147.225 262.226 146.74 262.142 146.077 262.057C145.225 261.951 144.515 261.824 143.947 261.676C143.403 261.507 142.953 261.243 142.575 260.873C142.196 260.482 142.007 259.942 142.007 259.266C142.007 258.399 142.397 257.701 143.19 257.193C144.006 256.665 145.095 256.39 146.456 256.39C147.178 256.39 147.887 256.474 148.586 256.644C149.307 256.792 149.911 257.003 150.384 257.278L149.532 258.631C148.645 258.124 147.615 257.87 146.456 257.87C145.627 257.87 145 257.997 144.562 258.251C144.113 258.483 143.9 258.79 143.9 259.181C143.9 259.498 144.018 259.752 144.278 259.942C144.527 260.112 144.823 260.238 145.178 260.323C145.521 260.408 146.03 260.513 146.692 260.619C147.544 260.767 148.231 260.915 148.775 261.084C149.307 261.232 149.769 261.486 150.148 261.846C150.526 262.184 150.716 262.681 150.716 263.326C150.716 264.203 150.29 264.912 149.438 265.44C148.609 265.948 147.497 266.202 146.077 266.202Z" fill="#333333"/>
<path d="M158.584 252.626H160.525V266.075H158.584V252.626Z" fill="#333333"/>
<path d="M168.822 266.202C167.745 266.202 166.787 265.99 165.935 265.567C165.083 265.144 164.42 264.573 163.947 263.833C163.473 263.072 163.237 262.226 163.237 261.296C163.237 260.344 163.473 259.498 163.947 258.758C164.42 258.029 165.083 257.447 165.935 257.024C166.787 256.601 167.745 256.39 168.822 256.39C169.887 256.39 170.833 256.601 171.662 257.024C172.514 257.447 173.176 258.029 173.65 258.758C174.147 259.498 174.407 260.344 174.407 261.296C174.407 262.226 174.147 263.072 173.65 263.833C173.176 264.573 172.514 265.144 171.662 265.567C170.833 265.99 169.887 266.202 168.822 266.202ZM168.822 264.679C169.508 264.679 170.123 264.542 170.668 264.256C171.236 263.981 171.662 263.58 171.946 263.072C172.253 262.543 172.419 261.951 172.419 261.296C172.419 260.619 172.253 260.027 171.946 259.519C171.662 259.012 171.236 258.621 170.668 258.335C170.123 258.06 169.508 257.912 168.822 257.912C168.124 257.912 167.508 258.06 166.976 258.335C166.432 258.621 165.994 259.012 165.651 259.519C165.331 260.027 165.177 260.619 165.177 261.296C165.177 261.951 165.331 262.543 165.651 263.072C165.994 263.58 166.432 263.981 166.976 264.256C167.508 264.542 168.124 264.679 168.822 264.679Z" fill="#333333"/>
<path d="M180.159 266.202C179.272 266.202 178.42 266.096 177.603 265.906C176.81 265.684 176.183 265.398 175.71 265.06L176.515 263.706C176.988 263.992 177.556 264.235 178.219 264.425C178.905 264.595 179.603 264.679 180.301 264.679C182.005 264.679 182.857 264.246 182.857 263.368C182.857 263.093 182.727 262.861 182.478 262.691C182.253 262.522 181.97 262.395 181.626 262.311C181.307 262.226 180.822 262.142 180.159 262.057C179.307 261.951 178.597 261.824 178.029 261.676C177.485 261.507 177.035 261.243 176.657 260.873C176.278 260.482 176.089 259.942 176.089 259.266C176.089 258.399 176.479 257.701 177.272 257.193C178.088 256.665 179.177 256.39 180.538 256.39C181.26 256.39 181.97 256.474 182.668 256.644C183.389 256.792 183.993 257.003 184.466 257.278L183.614 258.631C182.727 258.124 181.697 257.87 180.538 257.87C179.709 257.87 179.082 257.997 178.644 258.251C178.195 258.483 177.982 258.79 177.982 259.181C177.982 259.498 178.1 259.752 178.361 259.942C178.609 260.112 178.905 260.238 179.26 260.323C179.603 260.408 180.112 260.513 180.774 260.619C181.626 260.767 182.313 260.915 182.857 261.084C183.389 261.232 183.851 261.486 184.23 261.846C184.608 262.184 184.798 262.681 184.798 263.326C184.798 264.203 184.372 264.912 183.52 265.44C182.691 265.948 181.579 266.202 180.159 266.202Z" fill="#333333"/>
<path d="M198.346 256.39C199.387 256.39 200.31 256.601 201.138 257.024C201.955 257.426 202.606 257.986 203.079 258.716C203.552 259.456 203.789 260.312 203.789 261.296C203.789 262.258 203.552 263.104 203.079 263.833C202.606 264.573 201.955 265.144 201.138 265.567C200.31 265.99 199.387 266.202 198.346 266.202C197.553 266.202 196.831 266.064 196.169 265.779C195.506 265.504 194.95 265.091 194.512 264.552V266.075H192.666V252.626H194.607V257.912C195.044 257.405 195.577 257.024 196.216 256.77C196.878 256.517 197.588 256.39 198.346 256.39ZM198.204 264.679C198.89 264.679 199.505 264.542 200.05 264.256C200.582 263.981 201.008 263.58 201.328 263.072C201.635 262.543 201.801 261.951 201.801 261.296C201.801 260.619 201.635 260.027 201.328 259.519C201.008 259.012 200.582 258.621 200.05 258.335C199.505 258.06 198.89 257.912 198.204 257.912C197.506 257.912 196.878 258.06 196.311 258.335C195.766 258.621 195.34 259.012 195.033 259.519C194.749 260.027 194.607 260.619 194.607 261.296C194.607 261.951 194.749 262.543 195.033 263.072C195.34 263.58 195.766 263.981 196.311 264.256C196.878 264.542 197.506 264.679 198.204 264.679Z" fill="#333333"/>
<path d="M210.397 256.39C211.876 256.39 213.012 256.718 213.805 257.363C214.586 258.018 214.988 258.991 214.988 260.281V266.075H213.142V264.806C212.787 265.261 212.314 265.61 211.722 265.863C211.119 266.085 210.409 266.202 209.593 266.202C208.386 266.202 207.427 265.948 206.705 265.44C205.972 264.912 205.617 264.214 205.617 263.368C205.617 262.522 205.96 261.846 206.658 261.338C207.344 260.809 208.457 260.534 209.971 260.534H213.048V260.196C213.048 259.467 212.787 258.906 212.29 258.504C211.817 258.113 211.107 257.912 210.16 257.912C209.522 257.912 208.894 258.018 208.267 258.208C207.664 258.378 207.155 258.621 206.753 258.927L205.948 257.616C206.48 257.225 207.131 256.929 207.889 256.728C208.67 256.506 209.51 256.39 210.397 256.39ZM209.924 264.848C210.681 264.848 211.32 264.711 211.864 264.425C212.397 264.119 212.787 263.696 213.048 263.157V261.803H210.018C208.374 261.803 207.557 262.3 207.557 263.283C207.557 263.77 207.758 264.15 208.173 264.425C208.61 264.711 209.19 264.848 209.924 264.848Z" fill="#333333"/>
<path d="M224.298 256.39C225.647 256.39 226.724 256.749 227.517 257.447C228.333 258.156 228.747 259.181 228.747 260.534V266.075H226.807V260.746C226.807 259.816 226.547 259.128 226.05 258.674C225.541 258.198 224.831 257.955 223.92 257.955C222.878 257.955 222.038 258.24 221.411 258.8C220.808 259.34 220.512 260.112 220.512 261.127V266.075H218.571V256.474H220.417V257.912C220.82 257.437 221.364 257.067 222.026 256.813C222.689 256.538 223.446 256.39 224.298 256.39Z" fill="#333333"/>
<path d="M237.04 266.202C235.927 266.202 234.957 265.99 234.105 265.567C233.253 265.144 232.567 264.573 232.07 263.833C231.597 263.072 231.36 262.226 231.36 261.296C231.36 260.344 231.597 259.498 232.07 258.758C232.567 258.029 233.253 257.447 234.105 257.024C234.957 256.601 235.927 256.39 237.04 256.39C238.01 256.39 238.886 256.58 239.643 256.94C240.4 257.278 240.98 257.775 241.394 258.42L239.927 259.308C239.572 258.832 239.146 258.483 238.649 258.251C238.176 258.029 237.619 257.912 236.992 257.912C236.294 257.912 235.667 258.06 235.099 258.335C234.555 258.621 234.117 259.012 233.774 259.519C233.454 260.027 233.3 260.619 233.3 261.296C233.3 261.972 233.454 262.565 233.774 263.072C234.117 263.58 234.555 263.981 235.099 264.256C235.667 264.542 236.294 264.679 236.992 264.679C237.619 264.679 238.176 264.573 238.649 264.341C239.146 264.087 239.572 263.738 239.927 263.283L241.394 264.129C240.98 264.785 240.4 265.292 239.643 265.652C238.886 266.022 238.01 266.202 237.04 266.202Z" fill="#333333"/>
<path d="M248.501 266.202C247.424 266.202 246.466 265.99 245.614 265.567C244.762 265.144 244.099 264.573 243.626 263.833C243.153 263.072 242.916 262.226 242.916 261.296C242.916 260.344 243.153 259.498 243.626 258.758C244.099 258.029 244.762 257.447 245.614 257.024C246.466 256.601 247.424 256.39 248.501 256.39C249.566 256.39 250.513 256.601 251.341 257.024C252.193 257.447 252.856 258.029 253.329 258.758C253.826 259.498 254.086 260.344 254.086 261.296C254.086 262.226 253.826 263.072 253.329 263.833C252.856 264.573 252.193 265.144 251.341 265.567C250.513 265.99 249.566 266.202 248.501 266.202ZM248.501 264.679C249.187 264.679 249.803 264.542 250.347 264.256C250.915 263.981 251.341 263.58 251.625 263.072C251.933 262.543 252.098 261.951 252.098 261.296C252.098 260.619 251.933 260.027 251.625 259.519C251.341 259.012 250.915 258.621 250.347 258.335C249.803 258.06 249.187 257.912 248.501 257.912C247.803 257.912 247.188 258.06 246.655 258.335C246.111 258.621 245.673 259.012 245.33 259.519C245.01 260.027 244.857 260.619 244.857 261.296C244.857 261.951 245.01 262.543 245.33 263.072C245.673 263.58 246.111 263.981 246.655 264.256C247.188 264.542 247.803 264.679 248.501 264.679Z" fill="#333333"/>
<path d="M259.838 266.202C258.95 266.202 258.098 266.096 257.282 265.906C256.489 265.684 255.862 265.398 255.389 265.06L256.193 263.706C256.667 263.992 257.235 264.235 257.897 264.425C258.584 264.595 259.282 264.679 259.98 264.679C261.684 264.679 262.536 264.246 262.536 263.368C262.536 263.093 262.406 262.861 262.157 262.691C261.932 262.522 261.648 262.395 261.305 262.311C260.986 262.226 260.5 262.142 259.838 262.057C258.986 261.951 258.276 261.824 257.708 261.676C257.164 261.507 256.714 261.243 256.335 260.873C255.957 260.482 255.767 259.942 255.767 259.266C255.767 258.399 256.158 257.701 256.951 257.193C257.767 256.665 258.856 256.39 260.216 256.39C260.938 256.39 261.648 256.474 262.346 256.644C263.068 256.792 263.672 257.003 264.145 257.278L263.293 258.631C262.406 258.124 261.376 257.87 260.216 257.87C259.388 257.87 258.761 257.997 258.323 258.251C257.874 258.483 257.661 258.79 257.661 259.181C257.661 259.498 257.779 259.752 258.039 259.942C258.288 260.112 258.584 260.238 258.939 260.323C259.282 260.408 259.79 260.513 260.453 260.619C261.305 260.767 261.991 260.915 262.536 261.084C263.068 261.232 263.53 261.486 263.908 261.846C264.287 262.184 264.476 262.681 264.476 263.326C264.476 264.203 264.05 264.912 263.198 265.44C262.37 265.948 261.258 266.202 259.838 266.202Z" fill="#333333"/>
<path d="M96.1588 288.899C97.5432 289.047 98.5964 289.438 99.33 290.083C100.087 290.707 100.466 291.521 100.466 292.536C100.466 293.276 100.253 293.932 99.8506 294.524C99.4365 295.095 98.8212 295.539 98.0047 295.877C97.2119 296.215 96.2298 296.384 95.0702 296.384C94.0526 296.384 93.0823 296.258 92.1357 296.004C91.2127 295.729 90.4554 295.348 89.8638 294.862L90.8104 293.424C91.2837 293.847 91.899 294.185 92.6563 294.439C93.4136 294.672 94.2182 294.777 95.0702 294.777C96.1351 294.777 96.9634 294.587 97.5314 294.185C98.123 293.794 98.4307 293.244 98.4307 292.536C98.4307 291.838 98.123 291.299 97.5314 290.929C96.9634 290.538 96.0878 290.337 94.9282 290.337H93.7923V289.068L97.3421 285.177H90.5264V283.57H99.898V284.839L96.1588 288.899Z" fill="#333333"/>
<path d="M108.114 296.384C106.978 296.384 105.96 296.131 105.085 295.623C104.233 295.116 103.546 294.386 103.049 293.424C102.576 292.441 102.339 291.267 102.339 289.914C102.339 288.592 102.576 287.44 103.049 286.446C103.546 285.462 104.233 284.712 105.085 284.204C105.96 283.697 106.978 283.443 108.114 283.443C109.214 283.443 110.196 283.697 111.048 284.204C111.924 284.712 112.622 285.462 113.131 286.446C113.628 287.44 113.888 288.592 113.888 289.914C113.888 291.267 113.628 292.441 113.131 293.424C112.622 294.386 111.924 295.116 111.048 295.623C110.196 296.131 109.214 296.384 108.114 296.384ZM108.114 294.777C109.25 294.777 110.149 294.376 110.812 293.551C111.498 292.705 111.853 291.5 111.853 289.914C111.853 288.338 111.498 287.144 110.812 286.319C110.149 285.473 109.25 285.05 108.114 285.05C106.978 285.05 106.055 285.473 105.369 286.319C104.67 287.144 104.327 288.338 104.327 289.914C104.327 291.5 104.67 292.705 105.369 293.551C106.055 294.376 106.978 294.777 108.114 294.777Z" fill="#333333"/>
<path d="M121.613 296.384C120.477 296.384 119.46 296.131 118.584 295.623C117.732 295.116 117.046 294.386 116.549 293.424C116.076 292.441 115.839 291.267 115.839 289.914C115.839 288.592 116.076 287.44 116.549 286.446C117.046 285.462 117.732 284.712 118.584 284.204C119.46 283.697 120.477 283.443 121.613 283.443C122.714 283.443 123.696 283.697 124.548 284.204C125.423 284.712 126.122 285.462 126.63 286.446C127.127 287.44 127.388 288.592 127.388 289.914C127.388 291.267 127.127 292.441 126.63 293.424C126.122 294.386 125.423 295.116 124.548 295.623C123.696 296.131 122.714 296.384 121.613 296.384ZM121.613 294.777C122.749 294.777 123.649 294.376 124.311 293.551C124.997 292.705 125.352 291.5 125.352 289.914C125.352 288.338 124.997 287.144 124.311 286.319C123.649 285.473 122.749 285.05 121.613 285.05C120.477 285.05 119.554 285.473 118.868 286.319C118.17 287.144 117.827 288.338 117.827 289.914C117.827 291.5 118.17 292.705 118.868 293.551C119.554 294.376 120.477 294.777 121.613 294.777Z" fill="#333333"/>
<path d="M140.888 288.56C141.799 288.56 142.616 288.719 143.349 289.026C144.106 289.343 144.686 289.787 145.1 290.379C145.538 290.971 145.763 291.648 145.763 292.409C145.763 293.202 145.538 293.91 145.1 294.524C144.651 295.116 144.035 295.581 143.254 295.919C142.497 296.236 141.645 296.384 140.699 296.384C138.805 296.384 137.338 295.856 136.297 294.777C135.279 293.678 134.782 292.113 134.782 290.083C134.782 288.677 135.043 287.482 135.587 286.488C136.155 285.473 136.936 284.712 137.953 284.204C138.959 283.697 140.131 283.443 141.456 283.443C142.142 283.443 142.793 283.517 143.396 283.654C144.024 283.771 144.556 283.951 145.006 284.204L144.201 285.6C143.538 285.209 142.639 285.008 141.503 285.008C140.012 285.008 138.853 285.42 138.001 286.234C137.172 287.059 136.77 288.243 136.77 289.787C136.77 289.988 136.782 290.125 136.817 290.21C137.22 289.681 137.776 289.269 138.474 288.983C139.196 288.708 140 288.56 140.888 288.56ZM140.651 294.947C141.562 294.947 142.308 294.725 142.876 294.27C143.467 293.826 143.775 293.234 143.775 292.494C143.775 291.732 143.467 291.14 142.876 290.717C142.308 290.273 141.527 290.041 140.557 290.041C139.894 290.041 139.302 290.157 138.805 290.379C138.332 290.58 137.953 290.876 137.669 291.267C137.409 291.637 137.291 292.05 137.291 292.494C137.291 292.948 137.409 293.361 137.669 293.72C137.918 294.09 138.297 294.386 138.805 294.608C139.302 294.841 139.918 294.947 140.651 294.947Z" fill="#333333"/>
<path d="M153.375 288.56C154.286 288.56 155.102 288.719 155.836 289.026C156.593 289.343 157.173 289.787 157.587 290.379C158.025 290.971 158.25 291.648 158.25 292.409C158.25 293.202 158.025 293.91 157.587 294.524C157.138 295.116 156.522 295.581 155.741 295.919C154.984 296.236 154.132 296.384 153.185 296.384C151.292 296.384 149.825 295.856 148.784 294.777C147.766 293.678 147.269 292.113 147.269 290.083C147.269 288.677 147.529 287.482 148.074 286.488C148.642 285.473 149.423 284.712 150.44 284.204C151.446 283.697 152.617 283.443 153.943 283.443C154.629 283.443 155.28 283.517 155.883 283.654C156.51 283.771 157.043 283.951 157.493 284.204L156.688 285.6C156.025 285.209 155.126 285.008 153.99 285.008C152.499 285.008 151.34 285.42 150.488 286.234C149.659 287.059 149.257 288.243 149.257 289.787C149.257 289.988 149.269 290.125 149.304 290.21C149.707 289.681 150.263 289.269 150.961 288.983C151.683 288.708 152.487 288.56 153.375 288.56ZM153.138 294.947C154.049 294.947 154.795 294.725 155.363 294.27C155.954 293.826 156.262 293.234 156.262 292.494C156.262 291.732 155.954 291.14 155.363 290.717C154.795 290.273 154.014 290.041 153.043 290.041C152.381 290.041 151.789 290.157 151.292 290.379C150.819 290.58 150.44 290.876 150.156 291.267C149.896 291.637 149.778 292.05 149.778 292.494C149.778 292.948 149.896 293.361 150.156 293.72C150.405 294.09 150.783 294.386 151.292 294.608C151.789 294.841 152.404 294.947 153.138 294.947Z" fill="#333333"/>
<path d="M170.074 283.57V284.839L164.347 296.258H162.17L167.802 285.177H161.318V287.418H159.377V283.57H170.074Z" fill="#333333"/>
<path d="M183.078 296.384C181.942 296.384 180.924 296.131 180.048 295.623C179.196 295.116 178.51 294.386 178.013 293.424C177.54 292.441 177.303 291.267 177.303 289.914C177.303 288.592 177.54 287.44 178.013 286.446C178.51 285.462 179.196 284.712 180.048 284.204C180.924 283.697 181.942 283.443 183.078 283.443C184.178 283.443 185.16 283.697 186.012 284.204C186.888 284.712 187.586 285.462 188.095 286.446C188.592 287.44 188.852 288.592 188.852 289.914C188.852 291.267 188.592 292.441 188.095 293.424C187.586 294.386 186.888 295.116 186.012 295.623C185.16 296.131 184.178 296.384 183.078 296.384ZM183.078 294.777C184.214 294.777 185.113 294.376 185.775 293.551C186.462 292.705 186.817 291.5 186.817 289.914C186.817 288.338 186.462 287.144 185.775 286.319C185.113 285.473 184.214 285.05 183.078 285.05C181.942 285.05 181.019 285.473 180.332 286.319C179.634 287.144 179.291 288.338 179.291 289.914C179.291 291.5 179.634 292.705 180.332 293.551C181.019 294.376 181.942 294.777 183.078 294.777Z" fill="#333333"/>
<path d="M196.577 296.384C195.441 296.384 194.423 296.131 193.547 295.623C192.695 295.116 192.009 294.386 191.512 293.424C191.039 292.441 190.802 291.267 190.802 289.914C190.802 288.592 191.039 287.44 191.512 286.446C192.009 285.462 192.695 284.712 193.547 284.204C194.423 283.697 195.441 283.443 196.577 283.443C197.677 283.443 198.659 283.697 199.511 284.204C200.387 284.712 201.085 285.462 201.594 286.446C202.091 287.44 202.351 288.592 202.351 289.914C202.351 291.267 202.091 292.441 201.594 293.424C201.085 294.386 200.387 295.116 199.511 295.623C198.659 296.131 197.677 296.384 196.577 296.384ZM196.577 294.777C197.713 294.777 198.612 294.376 199.275 293.551C199.961 292.705 200.316 291.5 200.316 289.914C200.316 288.338 199.961 287.144 199.275 286.319C198.612 285.473 197.713 285.05 196.577 285.05C195.441 285.05 194.518 285.473 193.831 286.319C193.133 287.144 192.79 288.338 192.79 289.914C192.79 291.5 193.133 292.705 193.831 293.551C194.518 294.376 195.441 294.777 196.577 294.777Z" fill="#333333"/>
<path d="M214.336 283.443C216.23 283.443 217.697 283.993 218.738 285.092C219.78 286.192 220.3 287.746 220.3 289.745C220.3 291.161 220.016 292.367 219.448 293.382C218.88 294.376 218.087 295.116 217.082 295.623C216.064 296.131 214.904 296.384 213.579 296.384C212.881 296.384 212.23 296.321 211.639 296.215C211.035 296.078 210.503 295.898 210.029 295.666L210.834 294.228C211.497 294.651 212.396 294.862 213.532 294.862C215.011 294.862 216.159 294.46 216.987 293.635C217.839 292.821 218.265 291.637 218.265 290.083V289.618C217.851 290.157 217.283 290.569 216.561 290.844C215.863 291.13 215.058 291.267 214.147 291.267C213.224 291.267 212.396 291.119 211.639 290.802C210.905 290.495 210.337 290.062 209.935 289.491C209.52 288.899 209.319 288.222 209.319 287.461C209.319 286.647 209.532 285.938 209.982 285.346C210.42 284.754 211.023 284.289 211.781 283.951C212.538 283.612 213.39 283.443 214.336 283.443ZM214.526 289.829C215.153 289.829 215.709 289.723 216.182 289.491C216.679 289.269 217.082 288.973 217.366 288.603C217.65 288.243 217.792 287.82 217.792 287.334C217.792 286.911 217.65 286.52 217.366 286.15C217.105 285.759 216.727 285.462 216.23 285.262C215.721 285.04 215.106 284.923 214.384 284.923C213.461 284.923 212.704 285.156 212.112 285.6C211.544 286.023 211.26 286.615 211.26 287.376C211.26 288.116 211.544 288.708 212.112 289.152C212.704 289.607 213.508 289.829 214.526 289.829Z" fill="#333333"/>
<path d="M232.551 283.57V284.839L226.824 296.258H224.647L230.279 285.177H223.795V287.418H221.854V283.57H232.551Z" fill="#333333"/>
<mask id="mask2_650_1957" style="mask-type:luminance" maskUnits="userSpaceOnUse" x="405" y="202" width="326" height="120">
<path d="M405.19 202.02H730V321.581H405.19V202.02Z" fill="white"/>
</mask>
<g mask="url(#mask2_650_1957)">
<path d="M814.581 207.931C814.581 204.706 811.694 202.126 808.085 202.126C804.476 202.126 801.589 204.706 801.589 207.931C801.589 210.733 803.872 213.09 806.878 213.63V273.114H456.474L415.426 310.437C414.349 309.792 413.142 309.358 411.698 309.358C408.089 309.358 405.19 311.938 405.19 315.163C405.19 318.398 408.089 320.978 411.698 320.978C415.307 320.978 418.195 318.398 418.195 315.163C418.195 313.873 417.71 312.689 416.988 311.727L457.444 274.943H809.173V213.63C812.179 213.207 814.581 210.838 814.581 207.931Z" fill="#FF892F"/>
</g>
<mask id="mask3_650_1957" style="mask-type:luminance" maskUnits="userSpaceOnUse" x="460" y="289" width="268" height="21">
<path d="M460.386 289.344H727.056V309.63H460.386V289.344Z" fill="white"/>
</mask>
<g mask="url(#mask3_650_1957)">
<path d="M697.413 289.344L674.014 308.878H689.059L712.458 289.344H697.413ZM688.942 308.54H675.404L697.66 289.915H711.186L688.942 308.54ZM673.767 289.344L650.368 308.878H665.413L688.812 289.344H673.767ZM665.295 308.54H651.758L674.014 289.915H687.539L665.295 308.54ZM650.12 289.344L626.722 308.878H641.767L665.166 289.344H650.12ZM641.649 308.54H628.112L650.368 289.915H663.893L641.649 308.54ZM626.474 289.344L603.076 308.878H618.121L641.52 289.344H626.474ZM618.003 308.54H604.466L626.722 289.915H640.247L618.003 308.54ZM602.946 289.344L579.559 308.995H594.604L618.003 289.46H602.946V289.344ZM594.357 308.54H580.82L603.076 289.915H616.613L594.357 308.54ZM579.3 289.344L555.913 308.995H570.958L594.357 289.46H579.3V289.344ZM570.711 308.54H557.174L579.429 289.915H592.967L570.711 308.54ZM555.654 289.344L532.267 308.995H547.312L570.711 289.344H555.654ZM547.183 308.54H533.527L555.783 289.915H569.321L547.183 308.54ZM532.008 289.344L508.621 308.995H523.666L547.065 289.344H532.008ZM523.536 308.54H510.011L532.267 289.915H545.792L523.536 308.54ZM508.361 289.344L485.104 308.995H500.15L523.419 289.344H508.361ZM499.89 308.54H486.365L508.621 289.915H522.146L499.89 308.54ZM484.727 289.344L461.458 308.995H476.503L499.773 289.344H484.727ZM476.244 308.54H462.719L484.975 289.915H498.5L476.244 308.54ZM721.059 289.344L697.66 308.878H712.705L736.104 289.344H721.059ZM712.458 308.54H698.921L721.177 289.915H734.714L712.458 308.54ZM744.705 289.344L721.306 308.878H736.352L759.75 289.344H744.705ZM736.104 308.54H722.567L744.823 289.915H758.36L736.104 308.54ZM768.221 289.344L744.823 308.878H759.868L783.267 289.344H768.221ZM759.75 308.54H746.213L768.469 289.915H782.006L759.75 308.54ZM791.868 289.344L768.469 308.878H783.514L806.913 289.344H791.868ZM783.396 308.54H769.859L792.115 289.915H805.652L783.396 308.54Z" fill="#FF892F"/>
</g>
</svg>
