<svg width="157" height="157" viewBox="0 0 157 157" fill="none" xmlns="http://www.w3.org/2000/svg">
<path d="M75.2292 65.4167C73.4228 65.4167 71.9584 63.9523 71.9584 62.1458C71.9584 60.3394 73.4228 58.875 75.2292 58.875H107.938C109.744 58.875 111.208 60.3394 111.208 62.1458C111.208 63.9523 109.744 65.4167 107.938 65.4167H75.2292ZM62.1459 85.0417C60.3394 85.0417 58.875 83.5773 58.875 81.7708C58.875 79.9644 60.3394 78.5 62.1459 78.5H107.938C109.744 78.5 111.208 79.9644 111.208 81.7708C111.208 83.5773 109.744 85.0417 107.938 85.0417H62.1459ZM62.1459 104.667C60.3394 104.667 58.875 103.202 58.875 101.396C58.875 99.5894 60.3394 98.125 62.1459 98.125H94.8542C96.6606 98.125 98.125 99.5894 98.125 101.396C98.125 103.202 96.6606 104.667 94.8542 104.667H62.1459ZM75.2292 32.7083C73.4228 32.7083 71.9584 31.2439 71.9584 29.4375C71.9584 27.6311 73.4228 26.1667 75.2292 26.1667H121.021C130.053 26.1667 137.375 33.4887 137.375 42.5208V127.562C137.375 136.595 130.053 143.917 121.021 143.917H49.0625C40.0304 143.917 32.7084 136.595 32.7084 127.562V94.8542C32.7084 93.0477 34.1728 91.5833 35.9792 91.5833C37.7856 91.5833 39.25 93.0477 39.25 94.8542V127.562C39.25 132.982 43.6432 137.375 49.0625 137.375H121.021C126.44 137.375 130.833 132.982 130.833 127.562V42.5208C130.833 37.1015 126.44 32.7083 121.021 32.7083H75.2292ZM39.25 55.6042C39.25 57.4106 37.7856 58.875 35.9792 58.875C34.1728 58.875 32.7084 57.4106 32.7084 55.6042V32.7083C32.7084 25.4826 38.566 19.625 45.7917 19.625C53.0174 19.625 58.875 25.4826 58.875 32.7083V55.6042C58.875 68.2492 48.6242 78.5 35.9792 78.5C23.3342 78.5 13.0834 68.2492 13.0834 55.6042V22.8958C13.0834 21.0894 14.5478 19.625 16.3542 19.625C18.1606 19.625 19.625 21.0894 19.625 22.8958V55.6042C19.625 64.6363 26.9471 71.9583 35.9792 71.9583C45.0114 71.9583 52.3334 64.6363 52.3334 55.6042V32.7083C52.3334 29.0955 49.4046 26.1667 45.7917 26.1667C42.1788 26.1667 39.25 29.0955 39.25 32.7083V55.6042Z" fill="#6D7364"/>
</svg>
