<svg width="40" height="34" viewBox="0 0 40 34" fill="none" xmlns="http://www.w3.org/2000/svg">
<g clip-path="url(#clip0_399_205)">
<path d="M3.26895 24.0803C2.47578 24.044 1.94737 23.7575 1.75844 23.0539C1.22311 21.059 0.672359 19.0671 0.19885 17.0573C-0.122066 15.695 0.176827 15.182 1.46647 14.699C7.40704 12.475 13.5128 10.8361 19.7294 9.6004C24.694 8.61358 29.6932 7.93399 34.7699 7.97757C35.1628 7.98103 35.5558 7.98842 35.9486 7.9966C37.1475 8.02146 37.4846 8.25585 37.9139 9.39856C38.4012 10.6959 38.8782 11.9972 39.3574 13.2975C39.7763 14.4344 39.5229 14.8526 38.3029 15.0918C34.1197 15.9124 29.9427 16.7672 25.7537 17.5572C19.2317 18.7874 12.9263 20.7697 6.67837 22.9603C5.79019 23.2716 4.9031 23.5862 4.01162 23.8878C3.74167 23.9792 3.45867 24.032 3.26895 24.0803Z" fill="#FEE501"/>
<path d="M36.3806 16.9976C37.4122 16.9834 37.8321 17.2716 38.1247 18.1392C38.7009 19.8474 39.276 21.556 39.8427 23.2675C40.2212 24.4107 39.9356 25.1068 38.7788 25.5769C36.6979 26.4223 34.6026 27.2345 32.4956 28.0129C27.9859 29.6786 23.5008 31.4034 19.0953 33.3313C17.7787 33.9073 16.9179 33.5274 16.4709 32.1643C15.6406 29.6324 14.8332 27.0927 14.022 24.5545C13.6235 23.3077 13.9112 22.6746 15.1125 22.2084C18.3127 20.9661 21.6439 20.1727 24.972 19.3764C28.6081 18.5065 32.2752 17.7792 35.9431 17.0578C36.1223 17.0226 36.3054 17.0076 36.3806 16.9976Z" fill="#FE031A"/>
<path d="M27.5876 0.100586C29.0025 0.100586 30.4175 0.100586 31.8324 0.100586C32.711 0.100586 33.3358 0.51935 33.7023 1.29741C34.2816 2.52744 34.844 3.76564 35.3908 5.01045C35.6489 5.59816 35.441 5.87126 34.6734 5.93654C33.2378 6.05877 31.8014 6.19878 30.3625 6.25038C23.0981 6.51041 16.0191 7.85606 9.03915 9.81302C7.65827 10.2002 7.36331 10.0215 6.88618 8.68588C6.44634 7.45492 6.01137 6.22206 5.56885 4.99204C5.25738 4.12635 5.36718 3.82431 6.20848 3.4529C7.62602 2.82712 9.12127 2.43242 10.6198 2.06934C16.1937 0.719451 21.8623 0.132363 27.5876 0.100586Z" fill="#203A8D"/>
</g>
<defs>
<clipPath id="clip0_399_205">
<rect width="40" height="33.5908" fill="white"/>
</clipPath>
</defs>
</svg>
