<svg width="40" height="40" viewBox="0 0 40 40" fill="none" xmlns="http://www.w3.org/2000/svg">
<path d="M9.0144 20L4.528 24.4912L0 20L4.528 15.4688L9.0144 20ZM19.9808 9.024L27.7072 16.7568L32.2368 12.2272L19.9808 0L7.7264 12.2672L12.256 16.7968L19.9808 9.024ZM35.4336 15.4688L30.9472 20L35.4736 24.5312L40 20L35.4336 15.4688ZM19.9808 30.976L12.2544 23.2032L7.7248 27.7344L19.9792 40L32.2336 27.7328L27.704 23.2032L19.9808 30.976ZM19.9808 24.4928L24.5088 19.96L19.9808 15.4704L15.4528 20L19.9808 24.4928Z" fill="#F0B90B"/>
</svg>
