<svg width="58" height="60" viewBox="0 0 58 60" fill="none" xmlns="http://www.w3.org/2000/svg">
<path d="M22.2327 22.6566C22.7871 21.0207 23.8816 19.6412 25.3221 18.7625C26.7627 17.8838 28.4564 17.5626 30.1032 17.8558C31.7501 18.149 33.2438 19.0376 34.3199 20.3644C35.396 21.6911 35.9849 23.3702 35.9824 25.1044C35.9824 30 28.9071 32.4478 28.9071 32.4478M29.0958 42.2389H29.1193M52.6803 30C52.6803 43.5187 42.1211 54.4778 29.0958 54.4778C16.0704 54.4778 5.51123 43.5187 5.51123 30C5.51123 16.4813 16.0704 5.52216 29.0958 5.52216C42.1211 5.52216 52.6803 16.4813 52.6803 30Z" stroke="#6D7364" stroke-width="4" stroke-linecap="round" stroke-linejoin="round"/>
</svg>
