<svg width="40" height="41" viewBox="0 0 40 41" fill="none" xmlns="http://www.w3.org/2000/svg">
<g clip-path="url(#clip0_401_228)">
<path d="M8.16722 7.49619C8.39555 7.30857 8.62701 7.12408 8.85535 6.93647C9.03677 6.92708 9.21193 6.91458 9.1869 6.65817L9.17126 6.67693C12.1271 5.50121 14.839 3.85332 17.5915 2.28672L17.9825 2.27734C21.836 4.11285 25.774 5.74511 29.7683 7.2429C29.9435 7.36485 30.1218 7.48368 30.2969 7.60563C32.4833 10.4167 34.8261 13.0903 37.2064 15.7356L37.2533 16.0296C36.0334 19.7225 35.1295 23.5029 34.1943 27.2771C34.0942 27.4647 33.9972 27.6492 33.8971 27.8368C30.935 31.0857 27.9698 34.3346 25.0077 37.5835C24.82 37.5084 24.623 37.4459 24.4447 37.3552C20.2752 35.1914 16.1089 33.0244 11.9426 30.8575C11.7361 30.7011 11.5328 30.5448 11.3264 30.3884C11.317 30.1883 11.2294 30.0632 11.0105 30.0663L11.023 30.0789C11.0011 29.5692 10.6038 29.2659 10.3473 28.8906C7.59169 24.835 4.51699 21.0045 1.94275 16.8238C2.60899 15.8451 3.30025 14.8851 3.93208 13.8845C5.29583 11.7238 7.10999 9.86014 8.16722 7.49619Z" fill="#231C46"/>
<path d="M1.94274 16.8237C4.51698 21.0044 7.5948 24.8349 10.3505 28.8874C10.6069 29.2658 11.0042 29.566 11.0261 30.0756C7.72305 28.7561 4.49195 27.2395 1.67687 25.0694C-0.20924 23.6154 -0.45947 20.5104 0.754145 18.3872C1.06068 17.8494 1.43602 17.3522 1.78009 16.8362C1.83326 16.8331 1.88644 16.83 1.94274 16.8237Z" fill="#40BACD"/>
<path d="M11.9457 30.8574C16.112 33.0244 20.2783 35.1913 24.4478 37.3552C24.6261 37.449 24.8231 37.5084 25.0108 37.5834C25.0264 37.6554 25.0358 37.7242 25.0421 37.7961C24.3915 38.4559 23.769 39.15 23.0809 39.7723C21.6171 41.0981 19.2555 41.1356 18.0669 39.5972C15.8899 36.7861 13.7161 33.9593 11.9457 30.8574Z" fill="#E73B7B"/>
<path d="M25.039 37.7991C25.0358 37.7272 25.0233 37.6553 25.0077 37.5865C27.9698 34.3376 30.9319 31.0887 33.8971 27.8398C33.3935 30.7885 32.5459 33.6528 31.6513 36.4952C31.0038 38.5527 28.9238 39.3845 26.8656 38.6371C26.2401 38.4057 25.6489 38.0805 25.039 37.7991Z" fill="#40BACD"/>
<path d="M29.7714 7.24615C25.774 5.74835 21.836 4.11609 17.9825 2.28059C19.0366 1.41443 20.294 0.907867 21.4982 0.320004C22.668 -0.252223 23.7471 0.0510889 24.5791 1.03294C26.3245 3.09046 28.0417 5.173 29.7714 7.24615ZM34.1942 27.2804C35.1295 23.5093 36.0334 19.7288 37.2533 16.0328C38.126 16.6269 38.7046 17.5056 39.3083 18.328C40.1247 19.4443 40.1247 20.6982 39.1988 21.7645C37.5692 23.6375 35.8676 25.4449 34.1942 27.2804ZM1.94273 16.8239C1.88955 16.8271 1.83325 16.8333 1.78008 16.8364C0.666554 13.0935 1.54549 10.9484 4.97989 9.10667C6.02773 8.54382 7.10372 8.03101 8.16719 7.4963C7.10997 9.86026 5.29581 11.7239 3.93205 13.8846C3.30022 14.8852 2.60584 15.8452 1.94273 16.8239Z" fill="#E73B7B"/>
<path d="M37.2095 15.7389C34.8292 13.0936 32.4864 10.42 30.3 7.60892C32.1674 8.37189 34.0504 9.10672 35.9021 9.90722C37.6537 10.6639 38.2386 11.8397 37.8257 13.6595C37.6631 14.36 37.416 15.0448 37.2095 15.7389ZM17.5915 2.29002C14.839 3.85661 12.1271 5.5045 9.17126 6.68023C9.99702 4.84159 11.2857 3.30627 12.5369 1.76782C13.1749 0.986093 14.1884 0.7547 15.2143 1.21749C16.0088 1.57708 16.8001 1.93355 17.5915 2.29002Z" fill="#40BACD"/>
<path d="M9.1869 6.6613C9.21505 6.91771 9.03676 6.93022 8.85535 6.9396C8.88037 6.7426 8.98359 6.64567 9.1869 6.6613ZM11.0136 30.0664C11.2294 30.0664 11.3201 30.1883 11.3295 30.3884C11.1387 30.3634 10.9854 30.304 11.0136 30.0664Z" fill="#40BACD"/>
</g>
<defs>
<clipPath id="clip0_401_228">
<rect width="40" height="40.8833" fill="white"/>
</clipPath>
</defs>
</svg>
