<svg width="57" height="60" viewBox="0 0 57 60" fill="none" xmlns="http://www.w3.org/2000/svg">
<g clip-path="url(#clip0_291_225)">
<path d="M2.75562 3.07434H12.1894L18.5101 35.8501C18.7257 36.9771 19.3165 37.9894 20.1788 38.7099C21.0411 39.4304 22.1202 39.8131 23.227 39.7911H46.1511C47.258 39.8131 48.337 39.4304 49.1993 38.7099C50.0617 37.9894 50.6524 36.9771 50.8681 35.8501L54.6416 15.3133H14.5479M23.9817 52.03C23.9817 53.3819 22.9258 54.4778 21.6232 54.4778C20.3207 54.4778 19.2648 53.3819 19.2648 52.03C19.2648 50.6781 20.3207 49.5822 21.6232 49.5822C22.9258 49.5822 23.9817 50.6781 23.9817 52.03ZM49.9247 52.03C49.9247 53.3819 48.8688 54.4778 47.5662 54.4778C46.2637 54.4778 45.2078 53.3819 45.2078 52.03C45.2078 50.6781 46.2637 49.5822 47.5662 49.5822C48.8688 49.5822 49.9247 50.6781 49.9247 52.03Z" stroke="#6D7364" stroke-width="4" stroke-linecap="round" stroke-linejoin="round"/>
</g>
<defs>
<clipPath id="clip0_291_225">
<rect width="56.6029" height="58.7468" fill="white" transform="translate(0.397156 0.626587)"/>
</clipPath>
</defs>
</svg>
