<svg width="58" height="58" viewBox="0 0 58 58" fill="none" xmlns="http://www.w3.org/2000/svg">
<path d="M5.88214 52.3244L9.13739 40.4405C7.12914 36.9629 6.07306 33.0165 6.07427 28.9746C6.08031 16.3294 16.3705 6.04163 29.0169 6.04163C35.154 6.04404 40.9129 8.43292 45.2448 12.7672C49.5755 17.1027 51.9607 22.864 51.9583 28.9927C51.9535 41.6379 41.6609 51.9269 29.0169 51.9269H29.0072C25.1684 51.9257 21.3947 50.9626 18.044 49.1344L5.88214 52.3244Z" fill="white"/>
<path d="M5.88214 52.9286C5.72264 52.9286 5.56798 52.8658 5.45318 52.7498C5.30214 52.5963 5.24293 52.3728 5.29973 52.1662L8.48852 40.5227C6.51168 37.0112 5.46889 33.0237 5.47131 28.9758C5.47614 15.9959 16.0382 5.4375 29.0169 5.4375C35.3123 5.43992 41.2271 7.89163 45.6726 12.3407C50.118 16.791 52.5649 22.7046 52.5625 28.9927C52.5576 41.9715 41.9944 52.5311 29.0169 52.5311C25.1635 52.5299 21.3512 51.5789 17.9679 49.7797L6.0356 52.9081C5.98485 52.9226 5.9341 52.9286 5.88214 52.9286Z" fill="#424837"/>
<path d="M29.0169 6.04171C35.154 6.04412 40.913 8.433 45.2448 12.7673C49.5755 17.1028 51.9608 22.8641 51.9583 28.9928C51.9535 41.638 41.6609 51.927 29.0169 51.927H29.0073C25.1684 51.9257 21.3948 50.9627 18.044 49.1345L5.88217 52.3245L9.13742 40.4405C7.12917 36.963 6.07309 33.0165 6.0743 28.9747C6.08034 16.3295 16.3705 6.04171 29.0169 6.04171ZM29.0169 4.83337C15.7059 4.83337 4.872 15.6625 4.86596 28.9747C4.86475 33.0431 5.89184 37.0524 7.83967 40.6012L4.71613 52.0067C4.60255 52.4236 4.71855 52.8682 5.02305 53.1752C5.25263 53.4072 5.56317 53.534 5.88217 53.534C5.98488 53.534 6.08759 53.5207 6.18909 53.4942L17.8942 50.425C21.3114 52.1988 25.1418 53.1353 29.0073 53.1365C42.3279 53.1365 53.1618 42.3062 53.1679 28.994C53.1703 22.5427 50.6606 16.4769 46.1015 11.9142C41.5401 7.35033 35.473 4.83579 29.0169 4.83337Z" fill="#CFD8DC"/>
<path d="M42.5044 15.5053C38.9035 11.902 34.1173 9.91674 29.023 9.91553C18.5056 9.91553 9.95186 18.4657 9.94702 28.9758C9.94581 32.5778 10.9536 36.0844 12.8627 39.1209L13.3171 39.8423L11.3898 46.876L18.6071 44.9838L19.3044 45.397C22.2309 47.1346 25.5877 48.0529 29.0097 48.0542H29.0169C39.527 48.0542 48.0808 39.5028 48.0844 28.9915C48.0856 23.8984 46.1052 19.1085 42.5044 15.5053Z" fill="#FAFBF9"/>
<path fill-rule="evenodd" clip-rule="evenodd" d="M23.2822 19.3877C22.8532 18.4331 22.4013 18.4138 21.9917 18.3969C21.657 18.3824 21.2751 18.3836 20.8933 18.3836C20.5115 18.3836 19.8904 18.5274 19.3648 19.1013C18.8391 19.6753 17.3577 21.0612 17.3577 23.8815C17.3577 26.7017 19.4119 29.4277 19.6983 29.8096C19.9846 30.1914 23.664 36.1642 29.4906 38.4624C34.3324 40.3716 35.3184 39.9922 36.3696 39.8967C37.4209 39.8013 39.7614 38.5108 40.2387 37.1719C40.716 35.8331 40.716 34.6864 40.5734 34.4472C40.4296 34.2079 40.0478 34.0653 39.4751 33.7777C38.9023 33.4902 36.0833 32.1042 35.5576 31.9133C35.032 31.7224 34.6502 31.6269 34.2671 32.2009C33.8853 32.7736 32.7869 34.0653 32.4522 34.4472C32.1175 34.8302 31.7828 34.8785 31.2101 34.5909C30.6373 34.3034 28.791 33.6992 26.6003 31.7465C24.8965 30.2277 23.7462 28.3511 23.4115 27.7772C23.0768 27.2044 23.3752 26.8939 23.6628 26.6075C23.9202 26.3501 24.2356 25.9381 24.5231 25.6034C24.8095 25.2687 24.905 25.0294 25.0959 24.6476C25.2868 24.2645 25.1914 23.9298 25.0476 23.6434C24.9062 23.3559 23.7921 20.5211 23.2822 19.3877Z" fill="#424837"/>
</svg>
